<svg width="58" height="72" viewBox="0 0 58 72" fill="none" xmlns="http://www.w3.org/2000/svg">
<path d="M4.9911 40.826C3.85894 18.428 6.72876 6.46486 20.669 4.74177C62.7648 -0.461518 57.3553 72.2642 35.3855 70.4811C13.4156 68.6979 4.96379 40.2715 7.87764 34.7338" stroke="#5608D2" stroke-width="2.45719" stroke-linecap="round"/>
<circle cx="30.3884" cy="34.4878" r="1.77933" transform="rotate(-3.11622 30.3884 34.4878)" fill="#5608D2"/>
<circle cx="40.7018" cy="33.4695" r="1.77933" transform="rotate(-3.11622 40.7018 33.4695)" fill="#5608D2"/>
<path opacity="0.8" d="M9.50097 37.9612C10.2472 29.3491 2.09152 35.1077 5.30621 26.7551L19.3666 22.8243C9.47187 48.9788 42.0899 61.1324 51.9988 48.6411C52.1451 50.3055 51.8931 58.7067 45.0865 66.1065C37.1679 74.7152 26.6695 68.2965 21.5879 63.5407C16.1139 58.4178 8.15508 53.4945 9.50097 37.9612Z" fill="#FFD600"/>
<path d="M41.2013 56.6146C37.1192 59.1481 34.1476 57.5842 33.1721 56.4856" stroke="#5608D2" stroke-width="2.45719" stroke-linecap="round" stroke-linejoin="round"/>
<path d="M4.74963 28.2226C24.3293 18.8233 42.8162 19.8301 49.3625 21.5845C48.3105 15.0706 49.6491 -0.411795 26.6946 2.62534C3.74013 5.66248 4.09153 20.7101 4.74963 28.2226Z" fill="#FAF9FC"/>
<path d="M4.74963 28.2226C24.3293 18.8233 42.8162 19.8301 49.3625 21.5845C48.3105 15.0706 49.6491 -0.411795 26.6946 2.62534C3.74013 5.66248 4.09153 20.7101 4.74963 28.2226Z" fill="#FFC700" fill-opacity="0.61"/>
<path d="M4.74963 28.2226C24.3293 18.8233 42.8162 19.8301 49.3625 21.5845C48.3105 15.0706 49.6491 -0.411795 26.6946 2.62534C3.74013 5.66248 4.09153 20.7101 4.74963 28.2226Z" stroke="#5608D2" stroke-width="2.45719" stroke-linecap="round" stroke-linejoin="round"/>
<rect x="24.0857" y="8.31079" width="14.2467" height="3.36263" transform="rotate(-9.36447 24.0857 8.31079)" fill="black"/>
<path d="M28.2585 10.5332L28.0788 10.2659C28.1944 10.1302 28.2953 9.98166 28.381 9.82112C28.6001 9.4104 28.6695 8.95304 28.6277 8.48081C28.5602 7.71982 28.2231 7.08376 27.5908 6.6658C26.9878 6.26327 26.2447 6.14413 25.4382 6.21561L23.2128 6.41289C22.9611 6.43519 22.7594 6.55876 22.6203 6.71722C22.4493 6.90552 22.3747 7.14674 22.3961 7.38836L22.8447 12.4484C22.8666 12.6952 22.9844 12.9106 23.1667 13.0633L23.1845 13.0781L39.5011 9.01225M28.2585 10.5332L29.2786 6.60095C29.3191 6.41288 29.4094 6.25829 29.5102 6.13793L29.5208 6.12524L29.5321 6.11306C29.7256 5.90299 29.9739 5.81355 30.2018 5.79335L31.6308 5.66668C31.8484 5.64739 32.1308 5.68215 32.3722 5.88423L31.9736 6.36037L32.3722 5.88424C32.4924 5.98488 32.6084 6.12097 32.6814 6.29869L33.882 8.9025M28.2585 10.5332L28.0251 11.433L28.0646 11.4918L28.1639 11.483C28.1354 11.4856 28.1038 11.4909 28.0704 11.5004L28.1798 11.6632L28.2661 11.7915L28.28 11.8122L28.343 11.9059C28.3614 11.9358 28.3717 11.9637 28.3741 11.9897C28.3782 12.0366 28.3663 12.0796 28.3383 12.1188C28.3098 12.1528 28.2721 12.1719 28.2253 12.176L27.9474 12.2007C27.9871 12.3372 28.0591 12.4614 28.1581 12.565C28.1917 12.6001 28.2286 12.632 28.2682 12.6601C28.2748 12.6648 28.2814 12.6693 28.2881 12.6738C28.3741 12.7308 28.4681 12.7722 28.5668 12.7965C28.6661 12.7521 28.7584 12.6879 28.8379 12.6035C28.8495 12.5912 28.8608 12.5785 28.8718 12.5654L28.8889 12.5449L28.9044 12.5232C28.9934 12.3986 29.0493 12.2545 29.0656 12.1016L28.7956 12.1255C28.7512 12.1294 28.7103 12.1189 28.6728 12.0941C28.6685 12.0912 28.6646 12.088 28.6611 12.0843C28.63 12.0517 28.6125 12.0133 28.6086 11.9689C28.6071 11.9527 28.609 11.9377 28.6142 11.924L28.6162 11.9188C28.6185 11.9129 28.6208 11.9071 28.6224 11.901L28.674 11.702L28.6799 11.6794L28.7366 11.4607L28.7442 11.4317C28.7408 11.4319 28.7375 11.4322 28.7341 11.4325L28.7442 11.4316M33.882 8.9025L33.6593 6.38995C33.6378 6.14834 33.7124 5.90713 33.8834 5.71883C34.0225 5.56036 34.2242 5.43679 34.4759 5.41448L36.6155 5.22482C37.1937 5.17356 37.7394 5.22096 38.2358 5.39302C38.7365 5.56151 39.1614 5.84846 39.49 6.25472C39.8285 6.67308 40.0169 7.18191 40.0866 7.74383C40.1176 7.97274 40.1415 8.17975 40.1578 8.36379C40.1742 8.54861 40.1869 8.75506 40.1962 8.98217M33.882 8.9025L34.0643 10.9596L34.0645 10.96L34.0675 10.9597C34.0665 10.9598 34.0655 10.9599 34.0645 10.96L34.0682 10.968L34.2728 11.4117C34.2759 11.4188 34.2784 11.4264 34.2805 11.4347C34.2828 11.4442 34.2845 11.4546 34.2855 11.4657C34.2896 11.5126 34.2751 11.5558 34.2419 11.5955C34.2175 11.6247 34.1863 11.6429 34.1483 11.6501C34.2011 11.813 34.2988 11.9551 34.4298 12.0649L34.4476 12.0797L34.4663 12.0934C34.515 12.1289 34.5671 12.1599 34.622 12.1855C34.6774 12.1453 34.729 12.0975 34.7754 12.0421C34.882 11.9148 34.9578 11.7539 34.9771 11.5728L33.882 8.9025ZM40.1962 8.98217C40.1962 8.98273 40.1962 8.9833 40.1962 8.98386L39.5011 9.01225M40.1962 8.98217C40.1961 8.98156 40.1961 8.98095 40.1961 8.98034L39.5011 9.01225M40.1962 8.98217C40.2224 9.55802 40.1359 10.0993 39.8914 10.5703C39.892 10.5691 39.8927 10.5679 39.8933 10.5667L39.2726 10.2524C39.4475 9.91681 39.5236 9.50344 39.5011 9.01225" fill="#F57C61" stroke="black" stroke-width="1.39147"/>
<path d="M48.7791 21.4252C49.1809 20.8925 34.2924 15.3725 4.83123 28.032C9.8267 12.8892 40.9518 8.80333 50.8449 11.3006C60.8109 13.8163 54.8723 17.6396 48.7791 21.4252Z" fill="#FAF9FC"/>
<path d="M48.7791 21.4252C49.1809 20.8925 34.2924 15.3725 4.83123 28.032C9.8267 12.8892 40.9518 8.80333 50.8449 11.3006C60.8109 13.8163 54.8723 17.6396 48.7791 21.4252Z" fill="#3F2195" fill-opacity="0.61"/>
<path d="M48.7791 21.4252C49.1809 20.8925 34.2924 15.3725 4.83123 28.032C9.8267 12.8892 40.9518 8.80333 50.8449 11.3006C60.8109 13.8163 54.8723 17.6396 48.7791 21.4252Z" stroke="#5608D2" stroke-width="2.4572" stroke-linecap="round" stroke-linejoin="round"/>
<path opacity="0.35" d="M48.7649 21.4295C49.168 20.8965 34.2511 15.3876 4.71433 28.0713C9.73342 12.9231 40.9307 8.81253 50.8437 11.3023C60.8296 13.8105 54.8747 17.6388 48.7649 21.4295Z" fill="#FFC700" stroke="#5608D2" stroke-width="2.45719" stroke-linecap="round" stroke-linejoin="round"/>
<path d="M37.8143 44.1504C40.5418 45.8953 39.7864 48.3866 37.0659 48.5347" stroke="#5608D2" stroke-width="2.45719" stroke-linecap="round"/>
<path d="M2.08335 39.2606C1.49482 28.4506 9.46721 33.4894 9.46721 33.4894C9.46721 33.4894 9.00487 38.2116 9.00805 40.5723C9.01124 42.9331 10.164 46.2883 10.164 46.2883C10.164 46.2883 2.67188 50.0706 2.08335 39.2606Z" fill="#FAF9FC"/>
<path d="M8.78613 34.033C8.78613 34.033 1.49269 28.4493 2.08122 39.2593C2.66975 50.0694 9.48293 46.8319 9.48293 46.8319" stroke="#5608D2" stroke-width="2.45719" stroke-linecap="round"/>
<path d="M9.02857 38.81C8.0457 40.4086 8.49408 41.7085 9.22426 42.4045" stroke="#5608D2" stroke-width="2.45719" stroke-linecap="round"/>
<path opacity="0.15" d="M48.8833 22.1659L50.2801 25.3197C44.5697 24.2892 31.756 19.9765 14.4755 24.9494L9.53114 26.5915C11.2166 25.9568 12.8655 25.4128 14.4755 24.9494L14.9462 24.7931C24.0202 20.3083 36.8663 15.8259 48.8833 22.1659Z" fill="#5608D2"/>
<path opacity="0.3" d="M15.6145 5.37674C17.2496 7.79361 20.2725 13.1977 19.2829 15.479" stroke="#5608D2" stroke-width="0.222417"/>
<path opacity="0.3" d="M41.8744 4.99838C41.9763 6.36191 42.2165 8.57261 42.6 10.6463" stroke="#5608D2" stroke-width="0.222417"/>
</svg>
