<svg width="136" height="189" viewBox="0 0 136 189" fill="none" xmlns="http://www.w3.org/2000/svg">
<rect width="5.41007" height="75.741" transform="matrix(-1 0 0 1 73.4414 2.02808)" fill="#444444"/>
<rect width="5.41007" height="75.741" transform="matrix(-1 0 0 1 73.4414 2.02808)" fill="url(#paint0_linear_5_22717)" fill-opacity="0.24"/>
<path d="M68.0312 2.02808L66.0031 0.000304311V75.741L68.0312 77.7686V2.02808Z" fill="#A9A9A9"/>
<path d="M68.0312 2.02808L66.0031 0.000304311V75.741L68.0312 77.7686V2.02808Z" fill="url(#paint1_linear_5_22717)" fill-opacity="0.24"/>
<path d="M71.4126 0H66.0025L68.0313 2.02878H73.4414L71.4126 0Z" fill="#8C8C8C"/>
<rect width="5.41007" height="2.02878" transform="matrix(-1 0 0 1 73.4414 0)" fill="#444444"/>
<rect width="5.41007" height="2.02878" transform="matrix(-1 0 0 1 73.4414 0)" fill="black" fill-opacity="0.24"/>
<rect width="2.02878" height="2.02878" transform="matrix(-1 0 0 1 68.0317 0)" fill="#A9A9A9"/>
<rect width="2.02878" height="2.02878" transform="matrix(-1 0 0 1 68.0317 0)" fill="black" fill-opacity="0.24"/>
<rect width="54.1007" height="54.1007" transform="matrix(-1 0 0 1 55.1802 54.1021)" fill="#D3D3D3"/>
<path d="M93.7271 92.6469L55.1809 54.101V108.201L93.7271 146.747V92.6469Z" fill="#CDCDCD"/>
<path d="M39.6289 92.6517L1.08215 54.1039V108.205L39.6289 146.751V92.6517Z" fill="#3D3D3D"/>
<rect width="54.1007" height="54.1007" transform="matrix(-1 0 0 1 93.7295 92.6475)" fill="#353535"/>
<path d="M55.1826 54.1007H1.0819L39.6287 92.6475H93.7294L55.1826 54.1007Z" fill="#4B4E4F"/>
<g filter="url(#filter0_i_5_22717)">
<circle cx="21.5" cy="21.5" r="21.5" transform="matrix(-1 0 0 1 88.1211 98)" fill="#383B45"/>
</g>
<mask id="mask0_5_22717" style="mask-type:alpha" maskUnits="userSpaceOnUse" x="45" y="98" width="44" height="44">
<circle cx="21.6403" cy="21.6403" r="21.6403" transform="matrix(-1 0 0 1 88.3193 98.0576)" fill="#383B45"/>
</mask>
<g mask="url(#mask0_5_22717)">
<circle cx="0.676259" cy="0.676259" r="0.676259" transform="matrix(-1 0 0 1 70.7363 99.4102)" fill="#4D5366"/>
<circle cx="0.676259" cy="0.676259" r="0.676259" transform="matrix(-1 0 0 1 73.4414 99.4102)" fill="#4D5366"/>
<circle cx="0.676259" cy="0.676259" r="0.676259" transform="matrix(-1 0 0 1 68.0317 99.4102)" fill="#4D5366"/>
<circle cx="0.676259" cy="0.676259" r="0.676259" transform="matrix(-1 0 0 1 65.3267 99.4102)" fill="#4D5366"/>
<circle cx="0.676259" cy="0.676259" r="0.676259" transform="matrix(-1 0 0 1 62.6216 99.4102)" fill="#4D5366"/>
<circle cx="0.676259" cy="0.676259" r="0.676259" transform="matrix(-1 0 0 1 59.9165 99.4102)" fill="#4D5366"/>
<circle cx="0.676259" cy="0.676259" r="0.676259" transform="matrix(-1 0 0 1 77.499 102.115)" fill="#4D5366"/>
<circle cx="0.676259" cy="0.676259" r="0.676259" transform="matrix(-1 0 0 1 74.7939 102.115)" fill="#4D5366"/>
<circle cx="0.676259" cy="0.676259" r="0.676259" transform="matrix(-1 0 0 1 72.0889 102.115)" fill="#4D5366"/>
<circle cx="0.676259" cy="0.676259" r="0.676259" transform="matrix(-1 0 0 1 69.3838 102.115)" fill="#4D5366"/>
<circle cx="0.676259" cy="0.676259" r="0.676259" transform="matrix(-1 0 0 1 66.6792 102.115)" fill="#4D5366"/>
<circle cx="0.676259" cy="0.676259" r="0.676259" transform="matrix(-1 0 0 1 63.9741 102.115)" fill="#4D5366"/>
<circle cx="0.676259" cy="0.676259" r="0.676259" transform="matrix(-1 0 0 1 61.269 102.115)" fill="#4D5366"/>
<circle cx="0.676259" cy="0.676259" r="0.676259" transform="matrix(-1 0 0 1 58.564 102.115)" fill="#4D5366"/>
<circle cx="0.676259" cy="0.676259" r="0.676259" transform="matrix(-1 0 0 1 55.8589 102.115)" fill="#4D5366"/>
<circle cx="0.676259" cy="0.676259" r="0.676259" transform="matrix(-1 0 0 1 81.5566 104.82)" fill="#4D5366"/>
<circle cx="0.676259" cy="0.676259" r="0.676259" transform="matrix(-1 0 0 1 78.8516 104.82)" fill="#4D5366"/>
<circle cx="0.676259" cy="0.676259" r="0.676259" transform="matrix(-1 0 0 1 76.1465 104.82)" fill="#4D5366"/>
<circle cx="0.676259" cy="0.676259" r="0.676259" transform="matrix(-1 0 0 1 73.4414 104.82)" fill="#4D5366"/>
<circle cx="0.676259" cy="0.676259" r="0.676259" transform="matrix(-1 0 0 1 70.7363 104.82)" fill="#4D5366"/>
<circle cx="0.676259" cy="0.676259" r="0.676259" transform="matrix(-1 0 0 1 68.0317 104.82)" fill="#4D5366"/>
<circle cx="0.676259" cy="0.676259" r="0.676259" transform="matrix(-1 0 0 1 65.3267 104.82)" fill="#4D5366"/>
<circle cx="0.676259" cy="0.676259" r="0.676259" transform="matrix(-1 0 0 1 62.6216 104.82)" fill="#4D5366"/>
<circle cx="0.676259" cy="0.676259" r="0.676259" transform="matrix(-1 0 0 1 59.9165 104.82)" fill="#4D5366"/>
<circle cx="0.676259" cy="0.676259" r="0.676259" transform="matrix(-1 0 0 1 57.2114 104.82)" fill="#4D5366"/>
<circle cx="0.676259" cy="0.676259" r="0.676259" transform="matrix(-1 0 0 1 54.5063 104.82)" fill="#4D5366"/>
<circle cx="0.676259" cy="0.676259" r="0.676259" transform="matrix(-1 0 0 1 51.8013 104.82)" fill="#4D5366"/>
<circle cx="0.676259" cy="0.676259" r="0.676259" transform="matrix(-1 0 0 1 82.9092 107.525)" fill="#4D5366"/>
<circle cx="0.676259" cy="0.676259" r="0.676259" transform="matrix(-1 0 0 1 80.2041 107.525)" fill="#4D5366"/>
<circle cx="0.676259" cy="0.676259" r="0.676259" transform="matrix(-1 0 0 1 77.499 107.525)" fill="#4D5366"/>
<circle cx="0.676259" cy="0.676259" r="0.676259" transform="matrix(-1 0 0 1 74.7939 107.525)" fill="#4D5366"/>
<circle cx="0.676259" cy="0.676259" r="0.676259" transform="matrix(-1 0 0 1 72.0889 107.525)" fill="#4D5366"/>
<circle cx="0.676259" cy="0.676259" r="0.676259" transform="matrix(-1 0 0 1 69.3838 107.525)" fill="#4D5366"/>
<circle cx="0.676259" cy="0.676259" r="0.676259" transform="matrix(-1 0 0 1 66.6792 107.525)" fill="#4D5366"/>
<circle cx="0.676259" cy="0.676259" r="0.676259" transform="matrix(-1 0 0 1 63.9741 107.525)" fill="#4D5366"/>
<circle cx="0.676259" cy="0.676259" r="0.676259" transform="matrix(-1 0 0 1 61.269 107.525)" fill="#4D5366"/>
<circle cx="0.676259" cy="0.676259" r="0.676259" transform="matrix(-1 0 0 1 58.564 107.525)" fill="#4D5366"/>
<circle cx="0.676259" cy="0.676259" r="0.676259" transform="matrix(-1 0 0 1 55.8589 107.525)" fill="#4D5366"/>
<circle cx="0.676259" cy="0.676259" r="0.676259" transform="matrix(-1 0 0 1 53.1538 107.525)" fill="#4D5366"/>
<circle cx="0.676259" cy="0.676259" r="0.676259" transform="matrix(-1 0 0 1 50.4487 107.525)" fill="#4D5366"/>
<circle cx="0.676259" cy="0.676259" r="0.676259" transform="matrix(-1 0 0 1 84.2617 110.23)" fill="#4D5366"/>
<circle cx="0.676259" cy="0.676259" r="0.676259" transform="matrix(-1 0 0 1 81.5566 110.23)" fill="#4D5366"/>
<circle cx="0.676259" cy="0.676259" r="0.676259" transform="matrix(-1 0 0 1 78.8516 110.23)" fill="#4D5366"/>
<circle cx="0.676259" cy="0.676259" r="0.676259" transform="matrix(-1 0 0 1 76.1465 110.23)" fill="#4D5366"/>
<circle cx="0.676259" cy="0.676259" r="0.676259" transform="matrix(-1 0 0 1 73.4414 110.23)" fill="#4D5366"/>
<circle cx="0.676259" cy="0.676259" r="0.676259" transform="matrix(-1 0 0 1 70.7363 110.23)" fill="#4D5366"/>
<circle cx="0.676259" cy="0.676259" r="0.676259" transform="matrix(-1 0 0 1 68.0317 110.23)" fill="#4D5366"/>
<circle cx="0.676259" cy="0.676259" r="0.676259" transform="matrix(-1 0 0 1 65.3267 110.23)" fill="#4D5366"/>
<circle cx="0.676259" cy="0.676259" r="0.676259" transform="matrix(-1 0 0 1 62.6216 110.23)" fill="#4D5366"/>
<circle cx="0.676259" cy="0.676259" r="0.676259" transform="matrix(-1 0 0 1 59.9165 110.23)" fill="#4D5366"/>
<circle cx="0.676259" cy="0.676259" r="0.676259" transform="matrix(-1 0 0 1 57.2114 110.23)" fill="#4D5366"/>
<circle cx="0.676259" cy="0.676259" r="0.676259" transform="matrix(-1 0 0 1 54.5063 110.23)" fill="#4D5366"/>
<circle cx="0.676259" cy="0.676259" r="0.676259" transform="matrix(-1 0 0 1 51.8013 110.23)" fill="#4D5366"/>
<circle cx="0.676259" cy="0.676259" r="0.676259" transform="matrix(-1 0 0 1 49.0962 110.23)" fill="#4D5366"/>
<circle cx="0.676259" cy="0.676259" r="0.676259" transform="matrix(-1 0 0 1 85.6143 112.935)" fill="#4D5366"/>
<circle cx="0.676259" cy="0.676259" r="0.676259" transform="matrix(-1 0 0 1 82.9092 112.935)" fill="#4D5366"/>
<circle cx="0.676259" cy="0.676259" r="0.676259" transform="matrix(-1 0 0 1 80.2041 112.935)" fill="#4D5366"/>
<circle cx="0.676259" cy="0.676259" r="0.676259" transform="matrix(-1 0 0 1 77.499 112.935)" fill="#4D5366"/>
<circle cx="0.676259" cy="0.676259" r="0.676259" transform="matrix(-1 0 0 1 74.7939 112.935)" fill="#4D5366"/>
<circle cx="0.676259" cy="0.676259" r="0.676259" transform="matrix(-1 0 0 1 72.0889 112.935)" fill="#4D5366"/>
<circle cx="0.676259" cy="0.676259" r="0.676259" transform="matrix(-1 0 0 1 69.3838 112.935)" fill="#4D5366"/>
<circle cx="0.676259" cy="0.676259" r="0.676259" transform="matrix(-1 0 0 1 66.6792 112.935)" fill="#4D5366"/>
<circle cx="0.676259" cy="0.676259" r="0.676259" transform="matrix(-1 0 0 1 63.9741 112.935)" fill="#4D5366"/>
<circle cx="0.676259" cy="0.676259" r="0.676259" transform="matrix(-1 0 0 1 61.269 112.935)" fill="#4D5366"/>
<circle cx="0.676259" cy="0.676259" r="0.676259" transform="matrix(-1 0 0 1 58.564 112.935)" fill="#4D5366"/>
<circle cx="0.676259" cy="0.676259" r="0.676259" transform="matrix(-1 0 0 1 55.8589 112.935)" fill="#4D5366"/>
<circle cx="0.676259" cy="0.676259" r="0.676259" transform="matrix(-1 0 0 1 53.1538 112.935)" fill="#4D5366"/>
<circle cx="0.676259" cy="0.676259" r="0.676259" transform="matrix(-1 0 0 1 50.4487 112.935)" fill="#4D5366"/>
<circle cx="0.676259" cy="0.676259" r="0.676259" transform="matrix(-1 0 0 1 47.7437 112.935)" fill="#4D5366"/>
<circle cx="0.676259" cy="0.676259" r="0.676259" transform="matrix(-1 0 0 1 85.6143 115.64)" fill="#4D5366"/>
<circle cx="0.676259" cy="0.676259" r="0.676259" transform="matrix(-1 0 0 1 82.9092 115.64)" fill="#4D5366"/>
<circle cx="0.676259" cy="0.676259" r="0.676259" transform="matrix(-1 0 0 1 80.2041 115.64)" fill="#4D5366"/>
<circle cx="0.676259" cy="0.676259" r="0.676259" transform="matrix(-1 0 0 1 77.499 115.64)" fill="#4D5366"/>
<circle cx="0.676259" cy="0.676259" r="0.676259" transform="matrix(-1 0 0 1 74.7939 115.64)" fill="#4D5366"/>
<circle cx="0.676259" cy="0.676259" r="0.676259" transform="matrix(-1 0 0 1 72.0889 115.64)" fill="#4D5366"/>
<circle cx="0.676259" cy="0.676259" r="0.676259" transform="matrix(-1 0 0 1 69.3838 115.64)" fill="#4D5366"/>
<circle cx="0.676259" cy="0.676259" r="0.676259" transform="matrix(-1 0 0 1 66.6792 115.64)" fill="#4D5366"/>
<circle cx="0.676259" cy="0.676259" r="0.676259" transform="matrix(-1 0 0 1 63.9741 115.64)" fill="#4D5366"/>
<circle cx="0.676259" cy="0.676259" r="0.676259" transform="matrix(-1 0 0 1 61.269 115.64)" fill="#4D5366"/>
<circle cx="0.676259" cy="0.676259" r="0.676259" transform="matrix(-1 0 0 1 58.564 115.64)" fill="#4D5366"/>
<circle cx="0.676259" cy="0.676259" r="0.676259" transform="matrix(-1 0 0 1 55.8589 115.64)" fill="#4D5366"/>
<circle cx="0.676259" cy="0.676259" r="0.676259" transform="matrix(-1 0 0 1 53.1538 115.64)" fill="#4D5366"/>
<circle cx="0.676259" cy="0.676259" r="0.676259" transform="matrix(-1 0 0 1 50.4487 115.64)" fill="#4D5366"/>
<circle cx="0.676259" cy="0.676259" r="0.676259" transform="matrix(-1 0 0 1 47.7437 115.64)" fill="#4D5366"/>
<circle cx="0.676259" cy="0.676259" r="0.676259" transform="matrix(-1 0 0 1 85.6143 118.345)" fill="#4D5366"/>
<circle cx="0.676259" cy="0.676259" r="0.676259" transform="matrix(-1 0 0 1 82.9092 118.345)" fill="#4D5366"/>
<circle cx="0.676259" cy="0.676259" r="0.676259" transform="matrix(-1 0 0 1 80.2041 118.345)" fill="#4D5366"/>
<circle cx="0.676259" cy="0.676259" r="0.676259" transform="matrix(-1 0 0 1 77.499 118.345)" fill="#4D5366"/>
<circle cx="0.676259" cy="0.676259" r="0.676259" transform="matrix(-1 0 0 1 74.7939 118.345)" fill="#4D5366"/>
<circle cx="0.676259" cy="0.676259" r="0.676259" transform="matrix(-1 0 0 1 72.0889 118.345)" fill="#4D5366"/>
<circle cx="0.676259" cy="0.676259" r="0.676259" transform="matrix(-1 0 0 1 69.3838 118.345)" fill="#4D5366"/>
<circle cx="0.676259" cy="0.676259" r="0.676259" transform="matrix(-1 0 0 1 66.6792 118.345)" fill="#4D5366"/>
<circle cx="0.676259" cy="0.676259" r="0.676259" transform="matrix(-1 0 0 1 63.9741 118.345)" fill="#4D5366"/>
<circle cx="0.676259" cy="0.676259" r="0.676259" transform="matrix(-1 0 0 1 61.269 118.345)" fill="#4D5366"/>
<circle cx="0.676259" cy="0.676259" r="0.676259" transform="matrix(-1 0 0 1 58.564 118.345)" fill="#4D5366"/>
<circle cx="0.676259" cy="0.676259" r="0.676259" transform="matrix(-1 0 0 1 55.8589 118.345)" fill="#4D5366"/>
<circle cx="0.676259" cy="0.676259" r="0.676259" transform="matrix(-1 0 0 1 53.1538 118.345)" fill="#4D5366"/>
<circle cx="0.676259" cy="0.676259" r="0.676259" transform="matrix(-1 0 0 1 50.4487 118.345)" fill="#4D5366"/>
<circle cx="0.676259" cy="0.676259" r="0.676259" transform="matrix(-1 0 0 1 47.7437 118.345)" fill="#4D5366"/>
<circle cx="0.676259" cy="0.676259" r="0.676259" transform="matrix(-1 0 0 1 85.6143 121.05)" fill="#4D5366"/>
<circle cx="0.676259" cy="0.676259" r="0.676259" transform="matrix(-1 0 0 1 82.9092 121.05)" fill="#4D5366"/>
<circle cx="0.676259" cy="0.676259" r="0.676259" transform="matrix(-1 0 0 1 80.2041 121.05)" fill="#4D5366"/>
<circle cx="0.676259" cy="0.676259" r="0.676259" transform="matrix(-1 0 0 1 77.499 121.05)" fill="#4D5366"/>
<circle cx="0.676259" cy="0.676259" r="0.676259" transform="matrix(-1 0 0 1 74.7939 121.05)" fill="#4D5366"/>
<circle cx="0.676259" cy="0.676259" r="0.676259" transform="matrix(-1 0 0 1 72.0889 121.05)" fill="#4D5366"/>
<circle cx="0.676259" cy="0.676259" r="0.676259" transform="matrix(-1 0 0 1 69.3838 121.05)" fill="#4D5366"/>
<circle cx="0.676259" cy="0.676259" r="0.676259" transform="matrix(-1 0 0 1 66.6792 121.05)" fill="#4D5366"/>
<circle cx="0.676259" cy="0.676259" r="0.676259" transform="matrix(-1 0 0 1 63.9741 121.05)" fill="#4D5366"/>
<circle cx="0.676259" cy="0.676259" r="0.676259" transform="matrix(-1 0 0 1 61.269 121.05)" fill="#4D5366"/>
<circle cx="0.676259" cy="0.676259" r="0.676259" transform="matrix(-1 0 0 1 58.564 121.05)" fill="#4D5366"/>
<circle cx="0.676259" cy="0.676259" r="0.676259" transform="matrix(-1 0 0 1 55.8589 121.05)" fill="#4D5366"/>
<circle cx="0.676259" cy="0.676259" r="0.676259" transform="matrix(-1 0 0 1 53.1538 121.05)" fill="#4D5366"/>
<circle cx="0.676259" cy="0.676259" r="0.676259" transform="matrix(-1 0 0 1 50.4487 121.05)" fill="#4D5366"/>
<circle cx="0.676259" cy="0.676259" r="0.676259" transform="matrix(-1 0 0 1 47.7437 121.05)" fill="#4D5366"/>
<circle cx="0.676259" cy="0.676259" r="0.676259" transform="matrix(-1 0 0 1 85.6143 123.755)" fill="#4D5366"/>
<circle cx="0.676259" cy="0.676259" r="0.676259" transform="matrix(-1 0 0 1 82.9092 123.755)" fill="#4D5366"/>
<circle cx="0.676259" cy="0.676259" r="0.676259" transform="matrix(-1 0 0 1 80.2041 123.755)" fill="#4D5366"/>
<circle cx="0.676259" cy="0.676259" r="0.676259" transform="matrix(-1 0 0 1 77.499 123.755)" fill="#4D5366"/>
<circle cx="0.676259" cy="0.676259" r="0.676259" transform="matrix(-1 0 0 1 74.7939 123.755)" fill="#4D5366"/>
<circle cx="0.676259" cy="0.676259" r="0.676259" transform="matrix(-1 0 0 1 72.0889 123.755)" fill="#4D5366"/>
<circle cx="0.676259" cy="0.676259" r="0.676259" transform="matrix(-1 0 0 1 69.3838 123.755)" fill="#4D5366"/>
<circle cx="0.676259" cy="0.676259" r="0.676259" transform="matrix(-1 0 0 1 66.6792 123.755)" fill="#4D5366"/>
<circle cx="0.676259" cy="0.676259" r="0.676259" transform="matrix(-1 0 0 1 63.9741 123.755)" fill="#4D5366"/>
<circle cx="0.676259" cy="0.676259" r="0.676259" transform="matrix(-1 0 0 1 61.269 123.755)" fill="#4D5366"/>
<circle cx="0.676259" cy="0.676259" r="0.676259" transform="matrix(-1 0 0 1 58.564 123.755)" fill="#4D5366"/>
<circle cx="0.676259" cy="0.676259" r="0.676259" transform="matrix(-1 0 0 1 55.8589 123.755)" fill="#4D5366"/>
<circle cx="0.676259" cy="0.676259" r="0.676259" transform="matrix(-1 0 0 1 53.1538 123.755)" fill="#4D5366"/>
<circle cx="0.676259" cy="0.676259" r="0.676259" transform="matrix(-1 0 0 1 50.4487 123.755)" fill="#4D5366"/>
<circle cx="0.676259" cy="0.676259" r="0.676259" transform="matrix(-1 0 0 1 47.7437 123.755)" fill="#4D5366"/>
<circle cx="0.676259" cy="0.676259" r="0.676259" transform="matrix(-1 0 0 1 84.2617 126.46)" fill="#4D5366"/>
<circle cx="0.676259" cy="0.676259" r="0.676259" transform="matrix(-1 0 0 1 81.5566 126.46)" fill="#4D5366"/>
<circle cx="0.676259" cy="0.676259" r="0.676259" transform="matrix(-1 0 0 1 78.8516 126.46)" fill="#4D5366"/>
<circle cx="0.676259" cy="0.676259" r="0.676259" transform="matrix(-1 0 0 1 76.1465 126.46)" fill="#4D5366"/>
<circle cx="0.676259" cy="0.676259" r="0.676259" transform="matrix(-1 0 0 1 73.4414 126.46)" fill="#4D5366"/>
<circle cx="0.676259" cy="0.676259" r="0.676259" transform="matrix(-1 0 0 1 70.7363 126.46)" fill="#4D5366"/>
<circle cx="0.676259" cy="0.676259" r="0.676259" transform="matrix(-1 0 0 1 68.0317 126.46)" fill="#4D5366"/>
<circle cx="0.676259" cy="0.676259" r="0.676259" transform="matrix(-1 0 0 1 65.3267 126.46)" fill="#4D5366"/>
<circle cx="0.676259" cy="0.676259" r="0.676259" transform="matrix(-1 0 0 1 62.6216 126.46)" fill="#4D5366"/>
<circle cx="0.676259" cy="0.676259" r="0.676259" transform="matrix(-1 0 0 1 59.9165 126.46)" fill="#4D5366"/>
<circle cx="0.676259" cy="0.676259" r="0.676259" transform="matrix(-1 0 0 1 57.2114 126.46)" fill="#4D5366"/>
<circle cx="0.676259" cy="0.676259" r="0.676259" transform="matrix(-1 0 0 1 54.5063 126.46)" fill="#4D5366"/>
<circle cx="0.676259" cy="0.676259" r="0.676259" transform="matrix(-1 0 0 1 51.8013 126.46)" fill="#4D5366"/>
<circle cx="0.676259" cy="0.676259" r="0.676259" transform="matrix(-1 0 0 1 49.0962 126.46)" fill="#4D5366"/>
<circle cx="0.676259" cy="0.676259" r="0.676259" transform="matrix(-1 0 0 1 82.9092 129.166)" fill="#4D5366"/>
<circle cx="0.676259" cy="0.676259" r="0.676259" transform="matrix(-1 0 0 1 80.2041 129.166)" fill="#4D5366"/>
<circle cx="0.676259" cy="0.676259" r="0.676259" transform="matrix(-1 0 0 1 77.499 129.166)" fill="#4D5366"/>
<circle cx="0.676259" cy="0.676259" r="0.676259" transform="matrix(-1 0 0 1 74.7939 129.166)" fill="#4D5366"/>
<circle cx="0.676259" cy="0.676259" r="0.676259" transform="matrix(-1 0 0 1 72.0889 129.166)" fill="#4D5366"/>
<circle cx="0.676259" cy="0.676259" r="0.676259" transform="matrix(-1 0 0 1 69.3838 129.166)" fill="#4D5366"/>
<circle cx="0.676259" cy="0.676259" r="0.676259" transform="matrix(-1 0 0 1 66.6792 129.166)" fill="#4D5366"/>
<circle cx="0.676259" cy="0.676259" r="0.676259" transform="matrix(-1 0 0 1 63.9741 129.166)" fill="#4D5366"/>
<circle cx="0.676259" cy="0.676259" r="0.676259" transform="matrix(-1 0 0 1 61.269 129.166)" fill="#4D5366"/>
<circle cx="0.676259" cy="0.676259" r="0.676259" transform="matrix(-1 0 0 1 58.564 129.166)" fill="#4D5366"/>
<circle cx="0.676259" cy="0.676259" r="0.676259" transform="matrix(-1 0 0 1 55.8589 129.166)" fill="#4D5366"/>
<circle cx="0.676259" cy="0.676259" r="0.676259" transform="matrix(-1 0 0 1 53.1538 129.166)" fill="#4D5366"/>
<circle cx="0.676259" cy="0.676259" r="0.676259" transform="matrix(-1 0 0 1 50.4487 129.166)" fill="#4D5366"/>
<circle cx="0.676259" cy="0.676259" r="0.676259" transform="matrix(-1 0 0 1 81.5566 131.871)" fill="#4D5366"/>
<circle cx="0.676259" cy="0.676259" r="0.676259" transform="matrix(-1 0 0 1 78.8516 131.871)" fill="#4D5366"/>
<circle cx="0.676259" cy="0.676259" r="0.676259" transform="matrix(-1 0 0 1 76.1465 131.871)" fill="#4D5366"/>
<circle cx="0.676259" cy="0.676259" r="0.676259" transform="matrix(-1 0 0 1 73.4414 131.871)" fill="#4D5366"/>
<circle cx="0.676259" cy="0.676259" r="0.676259" transform="matrix(-1 0 0 1 70.7363 131.871)" fill="#4D5366"/>
<circle cx="0.676259" cy="0.676259" r="0.676259" transform="matrix(-1 0 0 1 68.0317 131.871)" fill="#4D5366"/>
<circle cx="0.676259" cy="0.676259" r="0.676259" transform="matrix(-1 0 0 1 65.3267 131.871)" fill="#4D5366"/>
<circle cx="0.676259" cy="0.676259" r="0.676259" transform="matrix(-1 0 0 1 62.6216 131.871)" fill="#4D5366"/>
<circle cx="0.676259" cy="0.676259" r="0.676259" transform="matrix(-1 0 0 1 59.9165 131.871)" fill="#4D5366"/>
<circle cx="0.676259" cy="0.676259" r="0.676259" transform="matrix(-1 0 0 1 57.2114 131.871)" fill="#4D5366"/>
<circle cx="0.676259" cy="0.676259" r="0.676259" transform="matrix(-1 0 0 1 54.5063 131.871)" fill="#4D5366"/>
<circle cx="0.676259" cy="0.676259" r="0.676259" transform="matrix(-1 0 0 1 51.8013 131.871)" fill="#4D5366"/>
<circle cx="0.676259" cy="0.676259" r="0.676259" transform="matrix(-1 0 0 1 77.499 134.576)" fill="#4D5366"/>
<circle cx="0.676259" cy="0.676259" r="0.676259" transform="matrix(-1 0 0 1 74.7939 134.576)" fill="#4D5366"/>
<circle cx="0.676259" cy="0.676259" r="0.676259" transform="matrix(-1 0 0 1 72.0889 134.576)" fill="#4D5366"/>
<circle cx="0.676259" cy="0.676259" r="0.676259" transform="matrix(-1 0 0 1 69.3838 134.576)" fill="#4D5366"/>
<circle cx="0.676259" cy="0.676259" r="0.676259" transform="matrix(-1 0 0 1 66.6792 134.576)" fill="#4D5366"/>
<circle cx="0.676259" cy="0.676259" r="0.676259" transform="matrix(-1 0 0 1 63.9741 134.576)" fill="#4D5366"/>
<circle cx="0.676259" cy="0.676259" r="0.676259" transform="matrix(-1 0 0 1 61.269 134.576)" fill="#4D5366"/>
<circle cx="0.676259" cy="0.676259" r="0.676259" transform="matrix(-1 0 0 1 58.564 134.576)" fill="#4D5366"/>
<circle cx="0.676259" cy="0.676259" r="0.676259" transform="matrix(-1 0 0 1 55.8589 134.576)" fill="#4D5366"/>
<circle cx="0.676259" cy="0.676259" r="0.676259" transform="matrix(-1 0 0 1 70.7363 137.281)" fill="#4D5366"/>
<circle cx="0.676259" cy="0.676259" r="0.676259" transform="matrix(-1 0 0 1 73.4414 137.281)" fill="#4D5366"/>
<circle cx="0.676259" cy="0.676259" r="0.676259" transform="matrix(-1 0 0 1 68.0317 137.281)" fill="#4D5366"/>
<circle cx="0.676259" cy="0.676259" r="0.676259" transform="matrix(-1 0 0 1 65.3267 137.281)" fill="#4D5366"/>
<circle cx="0.676259" cy="0.676259" r="0.676259" transform="matrix(-1 0 0 1 62.6216 137.281)" fill="#4D5366"/>
<circle cx="0.676259" cy="0.676259" r="0.676259" transform="matrix(-1 0 0 1 59.9165 137.281)" fill="#4D5366"/>
</g>
<rect width="5.41007" height="75.741" transform="matrix(-1 0 0 1 13.9307 2.02808)" fill="#444444"/>
<rect width="5.41007" height="75.741" transform="matrix(-1 0 0 1 13.9307 2.02808)" fill="url(#paint2_linear_5_22717)" fill-opacity="0.24"/>
<path d="M8.52051 2.02808L6.49239 0.000304311V75.741L8.52051 77.7686V2.02808Z" fill="#A9A9A9"/>
<path d="M8.52051 2.02808L6.49239 0.000304311V75.741L8.52051 77.7686V2.02808Z" fill="url(#paint3_linear_5_22717)" fill-opacity="0.24"/>
<path d="M11.9019 0H6.49178L8.52056 2.02878H13.9306L11.9019 0Z" fill="#8C8C8C"/>
<rect width="5.41007" height="2.02878" transform="matrix(-1 0 0 1 13.9307 0)" fill="#444444"/>
<rect width="5.41007" height="2.02878" transform="matrix(-1 0 0 1 13.9307 0)" fill="black" fill-opacity="0.24"/>
<rect width="2.02878" height="2.02878" transform="matrix(-1 0 0 1 8.52051 0)" fill="#A9A9A9"/>
<rect width="2.02878" height="2.02878" transform="matrix(-1 0 0 1 8.52051 0)" fill="black" fill-opacity="0.24"/>
<g filter="url(#filter1_d_5_22717)">
<path d="M104.526 59.8007C105.698 56.1588 103.547 53.4244 99.5099 53.4244H70.3659C66.3288 53.4244 61.6706 56.1588 59.5035 59.8007L49.4455 76.7039C44.2826 85.3808 48.2156 93.04 57.8341 93.04H75.7167C85.3353 93.04 96.2913 85.3807 99.0844 76.7039L104.526 59.8007Z" fill="url(#paint4_linear_5_22717)"/>
</g>
<g filter="url(#filter2_d_5_22717)">
<path d="M96.4879 163.335C95.0227 154.165 85.241 146.072 75.6236 146.072H57.7347C48.1173 146.072 43.0106 154.165 46.8421 163.335L54.3322 181.26C55.9408 185.109 60.1805 188 64.2182 188H93.3597C97.3974 188 99.9674 185.109 99.3522 181.26L96.4879 163.335Z" fill="url(#paint5_linear_5_22717)"/>
</g>
<g filter="url(#filter3_d_5_22717)">
<path d="M135.657 111.206C135.657 107.172 132.684 103.337 128.722 102.262L110.623 97.352C101.172 94.788 92.8245 101.024 92.8245 110.648V128.5C92.8245 138.123 101.172 146.78 110.623 146.957L128.722 147.295C132.684 147.369 135.657 144.397 135.657 140.362V111.206Z" fill="url(#paint6_linear_5_22717)"/>
</g>
<g filter="url(#filter4_d_5_22717)">
<path d="M40.3047 110.772C40.3047 101.148 32.6446 97.2332 23.9721 102.425L7.36374 112.368C3.72805 114.544 0.999727 119.205 0.999727 123.24V152.396C0.999727 156.43 3.72805 158.576 7.36374 157.4L23.9721 152.03C32.6446 149.225 40.3047 138.248 40.3047 128.624V110.772Z" fill="url(#paint7_linear_5_22717)"/>
</g>
<defs>
<filter id="filter0_i_5_22717" x="45.1211" y="98" width="43" height="43" filterUnits="userSpaceOnUse" color-interpolation-filters="sRGB">
<feFlood flood-opacity="0" result="BackgroundImageFix"/>
<feBlend mode="normal" in="SourceGraphic" in2="BackgroundImageFix" result="shape"/>
<feColorMatrix in="SourceAlpha" type="matrix" values="0 0 0 0 0 0 0 0 0 0 0 0 0 0 0 0 0 0 127 0" result="hardAlpha"/>
<feOffset dx="-2" dy="-2"/>
<feComposite in2="hardAlpha" operator="arithmetic" k2="-1" k3="1"/>
<feColorMatrix type="matrix" values="0 0 0 0 0.1125 0 0 0 0 0.1125 0 0 0 0 0.1125 0 0 0 1 0"/>
<feBlend mode="normal" in2="shape" result="effect1_innerShadow_5_22717"/>
</filter>
<filter id="filter1_d_5_22717" x="47.1626" y="52.4244" width="57.6816" height="40.6156" filterUnits="userSpaceOnUse" color-interpolation-filters="sRGB">
<feFlood flood-opacity="0" result="BackgroundImageFix"/>
<feColorMatrix in="SourceAlpha" type="matrix" values="0 0 0 0 0 0 0 0 0 0 0 0 0 0 0 0 0 0 127 0" result="hardAlpha"/>
<feOffset dy="-1"/>
<feComposite in2="hardAlpha" operator="out"/>
<feColorMatrix type="matrix" values="0 0 0 0 0.243137 0 0 0 0 0.243137 0 0 0 0 0.243137 0 0 0 1 0"/>
<feBlend mode="normal" in2="BackgroundImageFix" result="effect1_dropShadow_5_22717"/>
<feBlend mode="normal" in="SourceGraphic" in2="effect1_dropShadow_5_22717" result="shape"/>
</filter>
<filter id="filter2_d_5_22717" x="45.563" y="146.072" width="53.8799" height="42.9281" filterUnits="userSpaceOnUse" color-interpolation-filters="sRGB">
<feFlood flood-opacity="0" result="BackgroundImageFix"/>
<feColorMatrix in="SourceAlpha" type="matrix" values="0 0 0 0 0 0 0 0 0 0 0 0 0 0 0 0 0 0 127 0" result="hardAlpha"/>
<feOffset dy="1"/>
<feComposite in2="hardAlpha" operator="out"/>
<feColorMatrix type="matrix" values="0 0 0 0 0.243137 0 0 0 0 0.243137 0 0 0 0 0.243137 0 0 0 1 0"/>
<feBlend mode="normal" in2="BackgroundImageFix" result="effect1_dropShadow_5_22717"/>
<feBlend mode="normal" in="SourceGraphic" in2="effect1_dropShadow_5_22717" result="shape"/>
</filter>
<filter id="filter3_d_5_22717" x="92.8247" y="96.2738" width="42.8325" height="51.0223" filterUnits="userSpaceOnUse" color-interpolation-filters="sRGB">
<feFlood flood-opacity="0" result="BackgroundImageFix"/>
<feColorMatrix in="SourceAlpha" type="matrix" values="0 0 0 0 0 0 0 0 0 0 0 0 0 0 0 0 0 0 127 0" result="hardAlpha"/>
<feOffset dy="-0.5"/>
<feComposite in2="hardAlpha" operator="out"/>
<feColorMatrix type="matrix" values="0 0 0 0 0.243137 0 0 0 0 0.243137 0 0 0 0 0.243137 0 0 0 1 0"/>
<feBlend mode="normal" in2="BackgroundImageFix" result="effect1_dropShadow_5_22717"/>
<feBlend mode="normal" in="SourceGraphic" in2="effect1_dropShadow_5_22717" result="shape"/>
</filter>
<filter id="filter4_d_5_22717" x="-0.000488281" y="100.119" width="40.3052" height="57.6013" filterUnits="userSpaceOnUse" color-interpolation-filters="sRGB">
<feFlood flood-opacity="0" result="BackgroundImageFix"/>
<feColorMatrix in="SourceAlpha" type="matrix" values="0 0 0 0 0 0 0 0 0 0 0 0 0 0 0 0 0 0 127 0" result="hardAlpha"/>
<feOffset dx="-1"/>
<feComposite in2="hardAlpha" operator="out"/>
<feColorMatrix type="matrix" values="0 0 0 0 0.241667 0 0 0 0 0.241667 0 0 0 0 0.241667 0 0 0 1 0"/>
<feBlend mode="normal" in2="BackgroundImageFix" result="effect1_dropShadow_5_22717"/>
<feBlend mode="normal" in="SourceGraphic" in2="effect1_dropShadow_5_22717" result="shape"/>
</filter>
<linearGradient id="paint0_linear_5_22717" x1="2.70504" y1="0" x2="2.70504" y2="75.741" gradientUnits="userSpaceOnUse">
<stop/>
<stop offset="1" stop-opacity="0"/>
</linearGradient>
<linearGradient id="paint1_linear_5_22717" x1="67.0172" y1="1.01402" x2="29.1467" y2="38.8845" gradientUnits="userSpaceOnUse">
<stop/>
<stop offset="1" stop-opacity="0"/>
</linearGradient>
<linearGradient id="paint2_linear_5_22717" x1="2.70504" y1="0" x2="2.70504" y2="75.741" gradientUnits="userSpaceOnUse">
<stop/>
<stop offset="1" stop-opacity="0"/>
</linearGradient>
<linearGradient id="paint3_linear_5_22717" x1="7.50645" y1="1.01402" x2="-30.3641" y2="38.8845" gradientUnits="userSpaceOnUse">
<stop/>
<stop offset="1" stop-opacity="0"/>
</linearGradient>
<linearGradient id="paint4_linear_5_22717" x1="84.9379" y1="53.4244" x2="84.9379" y2="93.04" gradientUnits="userSpaceOnUse">
<stop stop-color="#5C5C5C"/>
<stop offset="1" stop-color="#2A2A2A"/>
</linearGradient>
<linearGradient id="paint5_linear_5_22717" x1="66.6791" y1="146.072" x2="66.6791" y2="188" gradientUnits="userSpaceOnUse">
<stop stop-color="#292929"/>
<stop offset="1" stop-color="#5C5C5C"/>
</linearGradient>
<linearGradient id="paint6_linear_5_22717" x1="135.657" y1="100.086" x2="90.7604" y2="115.893" gradientUnits="userSpaceOnUse">
<stop stop-color="#414141"/>
<stop offset="1" stop-color="#272727"/>
</linearGradient>
<linearGradient id="paint7_linear_5_22717" x1="40.3041" y1="123.079" x2="1.35367" y2="110.796" gradientUnits="userSpaceOnUse">
<stop stop-color="#292929"/>
<stop offset="1" stop-color="#414141"/>
</linearGradient>
</defs>
</svg>
