<svg width="28" height="22" viewBox="0 0 28 22" fill="none" xmlns="http://www.w3.org/2000/svg">
<rect x="0.078125" y="3.625" width="27.8438" height="18.2812" rx="2.2" fill="url(#paint0_linear_122_34088)"/>
<rect x="0.078125" y="3.625" width="27.8438" height="18.2812" rx="2.2" fill="url(#paint1_linear_122_34088)"/>
<rect x="0.078125" y="3.625" width="27.8438" height="18.2812" rx="2.2" fill="url(#paint2_linear_122_34088)"/>
<rect x="0.078125" y="0.03125" width="27.8438" height="18.2812" rx="2.2" fill="url(#paint3_radial_122_34088)"/>
<path fill-rule="evenodd" clip-rule="evenodd" d="M25.0625 2.15625H2.9375C2.52329 2.15625 2.1875 2.49204 2.1875 2.90625V15.4375C2.1875 15.8517 2.52329 16.1875 2.9375 16.1875H25.0625C25.4767 16.1875 25.8125 15.8517 25.8125 15.4375V2.90625C25.8125 2.49204 25.4767 2.15625 25.0625 2.15625ZM2.9375 1.40625C2.10907 1.40625 1.4375 2.07782 1.4375 2.90625V15.4375C1.4375 16.2659 2.10907 16.9375 2.9375 16.9375H25.0625C25.8909 16.9375 26.5625 16.2659 26.5625 15.4375V2.90625C26.5625 2.07782 25.8909 1.40625 25.0625 1.40625H2.9375Z" fill="url(#paint4_linear_122_34088)"/>
<path fill-rule="evenodd" clip-rule="evenodd" d="M25.0625 2.15625H2.9375C2.52329 2.15625 2.1875 2.49204 2.1875 2.90625V15.4375C2.1875 15.8517 2.52329 16.1875 2.9375 16.1875H25.0625C25.4767 16.1875 25.8125 15.8517 25.8125 15.4375V2.90625C25.8125 2.49204 25.4767 2.15625 25.0625 2.15625ZM2.9375 1.40625C2.10907 1.40625 1.4375 2.07782 1.4375 2.90625V15.4375C1.4375 16.2659 2.10907 16.9375 2.9375 16.9375H25.0625C25.8909 16.9375 26.5625 16.2659 26.5625 15.4375V2.90625C26.5625 2.07782 25.8909 1.40625 25.0625 1.40625H2.9375Z" fill="url(#paint5_linear_122_34088)"/>
<path fill-rule="evenodd" clip-rule="evenodd" d="M25.0625 2.15625H2.9375C2.52329 2.15625 2.1875 2.49204 2.1875 2.90625V15.4375C2.1875 15.8517 2.52329 16.1875 2.9375 16.1875H25.0625C25.4767 16.1875 25.8125 15.8517 25.8125 15.4375V2.90625C25.8125 2.49204 25.4767 2.15625 25.0625 2.15625ZM2.9375 1.40625C2.10907 1.40625 1.4375 2.07782 1.4375 2.90625V15.4375C1.4375 16.2659 2.10907 16.9375 2.9375 16.9375H25.0625C25.8909 16.9375 26.5625 16.2659 26.5625 15.4375V2.90625C26.5625 2.07782 25.8909 1.40625 25.0625 1.40625H2.9375Z" fill="url(#paint6_linear_122_34088)"/>
<path fill-rule="evenodd" clip-rule="evenodd" d="M25.0625 2.15625H2.9375C2.52329 2.15625 2.1875 2.49204 2.1875 2.90625V15.4375C2.1875 15.8517 2.52329 16.1875 2.9375 16.1875H25.0625C25.4767 16.1875 25.8125 15.8517 25.8125 15.4375V2.90625C25.8125 2.49204 25.4767 2.15625 25.0625 2.15625ZM2.9375 1.40625C2.10907 1.40625 1.4375 2.07782 1.4375 2.90625V15.4375C1.4375 16.2659 2.10907 16.9375 2.9375 16.9375H25.0625C25.8909 16.9375 26.5625 16.2659 26.5625 15.4375V2.90625C26.5625 2.07782 25.8909 1.40625 25.0625 1.40625H2.9375Z" fill="url(#paint7_linear_122_34088)"/>
<path fill-rule="evenodd" clip-rule="evenodd" d="M25.0625 2.15625H2.9375C2.52329 2.15625 2.1875 2.49204 2.1875 2.90625V15.4375C2.1875 15.8517 2.52329 16.1875 2.9375 16.1875H25.0625C25.4767 16.1875 25.8125 15.8517 25.8125 15.4375V2.90625C25.8125 2.49204 25.4767 2.15625 25.0625 2.15625ZM2.9375 1.40625C2.10907 1.40625 1.4375 2.07782 1.4375 2.90625V15.4375C1.4375 16.2659 2.10907 16.9375 2.9375 16.9375H25.0625C25.8909 16.9375 26.5625 16.2659 26.5625 15.4375V2.90625C26.5625 2.07782 25.8909 1.40625 25.0625 1.40625H2.9375Z" fill="url(#paint8_linear_122_34088)"/>
<ellipse cx="18.8438" cy="9.17188" rx="4.625" ry="4.26562" fill="#289D5B"/>
<ellipse cx="18.8438" cy="9.17188" rx="4.625" ry="4.26562" fill="url(#paint9_linear_122_34088)"/>
<ellipse cx="18.8438" cy="9.17188" rx="4.625" ry="4.26562" fill="url(#paint10_radial_122_34088)"/>
<path d="M12.5351 0.421875H17.0012V18.375H12.3672L12.5351 0.421875Z" fill="url(#paint11_linear_122_34088)"/>
<path d="M13.0023 21.7883L16.9318 21.7481V18.375H12.3672L13.0023 21.7883Z" fill="url(#paint12_linear_122_34088)"/>
<rect x="13.0625" y="0.03125" width="4.375" height="21.875" fill="url(#paint13_linear_122_34088)"/>
<rect x="13.0625" y="0.03125" width="4.375" height="21.875" fill="url(#paint14_linear_122_34088)"/>
<path d="M6.90869 5.78723C6.90869 5.44853 7.18327 5.17395 7.52197 5.17395C7.86068 5.17395 8.13525 5.44853 8.13525 5.78723V6.46249C9.13672 6.70706 9.61776 7.49608 9.68604 8.15833C9.72493 8.53564 9.51861 8.79149 9.18898 8.82548C8.85936 8.85946 8.5646 8.61979 8.53062 8.29017C8.50838 8.07442 8.39307 7.44739 7.4712 7.44739C6.15088 7.44739 6.11963 9.18958 7.65089 9.18958C8.30713 9.18958 9.00106 9.56972 9.31494 10.006C9.64165 10.4601 9.74854 10.9591 9.6778 11.4602C9.48602 12.3021 8.89993 12.8012 8.13525 12.977V13.6271C8.13525 13.9658 7.86068 14.2404 7.52197 14.2404C7.18327 14.2404 6.90869 13.9658 6.90869 13.6271V12.9914C6.053 12.8081 5.44412 12.1946 5.33447 11.2599C5.29586 10.9308 5.50187 10.6323 5.83098 10.5937C6.16009 10.5551 6.45819 10.7906 6.49681 11.1197C6.51597 11.283 6.58177 11.5144 6.72422 11.6916C6.84598 11.8431 7.05285 11.9786 7.4712 11.9786C7.99257 11.9786 8.2687 11.7881 8.4009 11.5724C8.80715 10.9865 8.33191 10.2599 7.62356 10.2599C6.67472 10.2208 6.20914 9.98031 5.83098 9.56848C5.5237 9.23384 5.3345 8.77447 5.3345 8.31067C5.3345 8.01342 5.42148 7.53172 5.7475 7.13487C6.01011 6.81522 6.3927 6.55429 6.90869 6.44363V5.78723Z" fill="#207B35"/>
<path d="M7.03906 5.54297C7.03906 5.20426 7.31364 4.92969 7.65234 4.92969C7.99105 4.92969 8.26562 5.20426 8.26562 5.54297V6.21823C9.26709 6.4628 9.74813 7.25182 9.81641 7.91406C9.8553 8.29137 9.64898 8.54723 9.31936 8.58121C8.98973 8.6152 8.69497 8.37553 8.66099 8.04591C8.63875 7.83016 8.52344 7.20312 7.60158 7.20312C6.28125 7.20312 6.25 8.94531 7.78126 8.94531C8.4375 8.94531 9.13143 9.32546 9.44531 9.76172C9.77202 10.2158 9.87891 10.7148 9.80817 11.2159C9.61639 12.0578 9.0303 12.557 8.26562 12.7327V13.3828C8.26562 13.7215 7.99105 13.9961 7.65234 13.9961C7.31364 13.9961 7.03906 13.7215 7.03906 13.3828V12.7471C6.18337 12.5638 5.57449 11.9503 5.46484 11.0156C5.42623 10.6865 5.63224 10.388 5.96135 10.3494C6.29047 10.3108 6.58857 10.5463 6.62718 10.8754C6.64634 11.0388 6.71214 11.2701 6.85459 11.4474C6.97636 11.5988 7.18323 11.7344 7.60158 11.7344C8.12294 11.7344 8.39907 11.5438 8.53127 11.3281C8.93752 10.7422 8.46229 10.0156 7.75393 10.0156C6.8051 9.97656 6.33951 9.73604 5.96135 9.32422C5.65407 8.98958 5.46487 8.5302 5.46487 8.06641C5.46487 7.76916 5.55185 7.28746 5.87787 6.89061C6.14048 6.57096 6.52307 6.31003 7.03906 6.19937V5.54297Z" fill="url(#paint15_linear_122_34088)"/>
<defs>
<linearGradient id="paint0_linear_122_34088" x1="26.1094" y1="20.6875" x2="1.04688" y2="20.6875" gradientUnits="userSpaceOnUse">
<stop stop-color="#12724A"/>
<stop offset="1" stop-color="#116245"/>
</linearGradient>
<linearGradient id="paint1_linear_122_34088" x1="27.9219" y1="19.8125" x2="25.2656" y2="19.8125" gradientUnits="userSpaceOnUse">
<stop stop-color="#1C8F60"/>
<stop offset="1" stop-color="#1C8F60" stop-opacity="0"/>
</linearGradient>
<linearGradient id="paint2_linear_122_34088" x1="0.078125" y1="19.6875" x2="2.82812" y2="19.6875" gradientUnits="userSpaceOnUse">
<stop offset="0.556818" stop-color="#195840"/>
<stop offset="1" stop-color="#195840" stop-opacity="0"/>
</linearGradient>
<radialGradient id="paint3_radial_122_34088" cx="0" cy="0" r="1" gradientUnits="userSpaceOnUse" gradientTransform="translate(0.687501 0.75) rotate(48.2593) scale(19.4327 25.4832)">
<stop stop-color="#31DE74"/>
<stop offset="1" stop-color="#20CF5E"/>
</radialGradient>
<linearGradient id="paint4_linear_122_34088" x1="23.625" y1="1.75" x2="5.875" y2="16.4375" gradientUnits="userSpaceOnUse">
<stop stop-color="#24A35B"/>
<stop offset="1" stop-color="#27A05A"/>
</linearGradient>
<linearGradient id="paint5_linear_122_34088" x1="1.4375" y1="9.17188" x2="1.78326" y2="9.17188" gradientUnits="userSpaceOnUse">
<stop stop-color="#188241"/>
<stop offset="1" stop-color="#188241" stop-opacity="0"/>
</linearGradient>
<linearGradient id="paint6_linear_122_34088" x1="5.2835" y1="17.0156" x2="5.2835" y2="16.4458" gradientUnits="userSpaceOnUse">
<stop stop-color="#188241"/>
<stop offset="1" stop-color="#188241" stop-opacity="0"/>
</linearGradient>
<linearGradient id="paint7_linear_122_34088" x1="26.5625" y1="16.4458" x2="26.2125" y2="16.4458" gradientUnits="userSpaceOnUse">
<stop stop-color="#188241"/>
<stop offset="1" stop-color="#188241" stop-opacity="0"/>
</linearGradient>
<linearGradient id="paint8_linear_122_34088" x1="26.2125" y1="1.40625" x2="26.2125" y2="1.88539" gradientUnits="userSpaceOnUse">
<stop stop-color="#188241"/>
<stop offset="1" stop-color="#2CB566" stop-opacity="0"/>
</linearGradient>
<linearGradient id="paint9_linear_122_34088" x1="17.3125" y1="9.6875" x2="19.0938" y2="9.6875" gradientUnits="userSpaceOnUse">
<stop offset="0.22807" stop-color="#269553"/>
<stop offset="1" stop-color="#269553" stop-opacity="0"/>
</linearGradient>
<radialGradient id="paint10_radial_122_34088" cx="0" cy="0" r="1" gradientUnits="userSpaceOnUse" gradientTransform="translate(18.8437 9.84375) rotate(-40.8023) scale(4.83012 4.74756)">
<stop offset="0.587108" stop-color="#249755" stop-opacity="0"/>
<stop offset="0.986856" stop-color="#16793D"/>
</radialGradient>
<linearGradient id="paint11_linear_122_34088" x1="13.104" y1="11.3848" x2="12.454" y2="11.3848" gradientUnits="userSpaceOnUse">
<stop stop-color="#0E4F33"/>
<stop offset="1" stop-color="#0E4F33" stop-opacity="0"/>
</linearGradient>
<linearGradient id="paint12_linear_122_34088" x1="13.1995" y1="19.5461" x2="12.5789" y2="19.6309" gradientUnits="userSpaceOnUse">
<stop offset="0.237809" stop-color="#0E4F33"/>
<stop offset="1" stop-color="#0E4F33" stop-opacity="0"/>
</linearGradient>
<linearGradient id="paint13_linear_122_34088" x1="15.25" y1="1.6875" x2="15.25" y2="19" gradientUnits="userSpaceOnUse">
<stop stop-color="#FFD425"/>
<stop offset="1" stop-color="#FFAD24"/>
</linearGradient>
<linearGradient id="paint14_linear_122_34088" x1="16.3125" y1="21.9063" x2="16.3125" y2="18.0625" gradientUnits="userSpaceOnUse">
<stop offset="0.893939" stop-color="#CC8139"/>
<stop offset="1" stop-color="#CC8139" stop-opacity="0"/>
</linearGradient>
<linearGradient id="paint15_linear_122_34088" x1="7.6446" y1="4.92969" x2="7.6446" y2="13.9961" gradientUnits="userSpaceOnUse">
<stop stop-color="#EFEAEA"/>
<stop offset="1" stop-color="#EAE3E3"/>
</linearGradient>
</defs>
</svg>
