<svg width="212" height="106" viewBox="0 0 212 106" fill="none" xmlns="http://www.w3.org/2000/svg">
<rect y="17" width="212" height="88" rx="2.2" fill="url(#paint0_linear_97_26258)"/>
<rect y="17" width="212" height="88" rx="2.2" fill="url(#paint1_linear_97_26258)"/>
<rect y="17" width="212" height="88" rx="2.2" fill="url(#paint2_linear_97_26258)"/>
<rect width="212" height="88" rx="2.2" fill="url(#paint3_radial_97_26258)"/>
<path fill-rule="evenodd" clip-rule="evenodd" d="M190.537 9.62173H21.4627C18.2974 9.62173 15.7313 11.2432 15.7313 13.2435V73.7565C15.7313 75.7568 18.2974 77.3783 21.4627 77.3783H190.537C193.703 77.3783 196.269 75.7568 196.269 73.7565V13.2435C196.269 11.2432 193.703 9.62173 190.537 9.62173ZM21.4627 6C15.132 6 10 9.24301 10 13.2435V73.7565C10 77.757 15.132 81 21.4627 81H190.537C196.868 81 202 77.757 202 73.7565V13.2435C202 9.24301 196.868 6 190.537 6H21.4627Z" fill="url(#paint4_linear_97_26258)"/>
<path fill-rule="evenodd" clip-rule="evenodd" d="M190.537 9.62173H21.4627C18.2974 9.62173 15.7313 11.2432 15.7313 13.2435V73.7565C15.7313 75.7568 18.2974 77.3783 21.4627 77.3783H190.537C193.703 77.3783 196.269 75.7568 196.269 73.7565V13.2435C196.269 11.2432 193.703 9.62173 190.537 9.62173ZM21.4627 6C15.132 6 10 9.24301 10 13.2435V73.7565C10 77.757 15.132 81 21.4627 81H190.537C196.868 81 202 77.757 202 73.7565V13.2435C202 9.24301 196.868 6 190.537 6H21.4627Z" fill="url(#paint5_linear_97_26258)"/>
<path fill-rule="evenodd" clip-rule="evenodd" d="M190.537 9.62173H21.4627C18.2974 9.62173 15.7313 11.2432 15.7313 13.2435V73.7565C15.7313 75.7568 18.2974 77.3783 21.4627 77.3783H190.537C193.703 77.3783 196.269 75.7568 196.269 73.7565V13.2435C196.269 11.2432 193.703 9.62173 190.537 9.62173ZM21.4627 6C15.132 6 10 9.24301 10 13.2435V73.7565C10 77.757 15.132 81 21.4627 81H190.537C196.868 81 202 77.757 202 73.7565V13.2435C202 9.24301 196.868 6 190.537 6H21.4627Z" fill="url(#paint6_linear_97_26258)"/>
<path fill-rule="evenodd" clip-rule="evenodd" d="M190.537 9.62173H21.4627C18.2974 9.62173 15.7313 11.2432 15.7313 13.2435V73.7565C15.7313 75.7568 18.2974 77.3783 21.4627 77.3783H190.537C193.703 77.3783 196.269 75.7568 196.269 73.7565V13.2435C196.269 11.2432 193.703 9.62173 190.537 9.62173ZM21.4627 6C15.132 6 10 9.24301 10 13.2435V73.7565C10 77.757 15.132 81 21.4627 81H190.537C196.868 81 202 77.757 202 73.7565V13.2435C202 9.24301 196.868 6 190.537 6H21.4627Z" fill="url(#paint7_linear_97_26258)"/>
<path fill-rule="evenodd" clip-rule="evenodd" d="M190.537 9.62173H21.4627C18.2974 9.62173 15.7313 11.2432 15.7313 13.2435V73.7565C15.7313 75.7568 18.2974 77.3783 21.4627 77.3783H190.537C193.703 77.3783 196.269 75.7568 196.269 73.7565V13.2435C196.269 11.2432 193.703 9.62173 190.537 9.62173ZM21.4627 6C15.132 6 10 9.24301 10 13.2435V73.7565C10 77.757 15.132 81 21.4627 81H190.537C196.868 81 202 77.757 202 73.7565V13.2435C202 9.24301 196.868 6 190.537 6H21.4627Z" fill="url(#paint8_linear_97_26258)"/>
<path d="M171.808 1.87988H193.301V88.2793H171L171.808 1.87988Z" fill="url(#paint9_linear_97_26258)"/>
<path d="M174.057 104.706L192.967 104.512V88.2793H171L174.057 104.706Z" fill="url(#paint10_linear_97_26258)"/>
<rect x="174.346" width="21.0547" height="105.273" fill="url(#paint11_linear_97_26258)"/>
<rect x="174.346" width="21.0547" height="105.273" fill="url(#paint12_linear_97_26258)"/>
<defs>
<linearGradient id="paint0_linear_97_26258" x1="198.2" y1="99.1333" x2="7.37598" y2="99.1333" gradientUnits="userSpaceOnUse">
<stop stop-color="#12724A"/>
<stop offset="1" stop-color="#116245"/>
</linearGradient>
<linearGradient id="paint1_linear_97_26258" x1="212" y1="94.9214" x2="191.776" y2="94.9214" gradientUnits="userSpaceOnUse">
<stop stop-color="#1C8F60"/>
<stop offset="1" stop-color="#1C8F60" stop-opacity="0"/>
</linearGradient>
<linearGradient id="paint2_linear_97_26258" x1="-2.24015e-08" y1="94.3197" x2="20.9383" y2="94.3197" gradientUnits="userSpaceOnUse">
<stop offset="0.556818" stop-color="#195840"/>
<stop offset="1" stop-color="#195840" stop-opacity="0"/>
</linearGradient>
<radialGradient id="paint3_radial_97_26258" cx="0" cy="0" r="1" gradientUnits="userSpaceOnUse" gradientTransform="translate(4.63974 3.45983) rotate(35.3205) scale(120.727 150.337)">
<stop stop-color="#31DE74"/>
<stop offset="1" stop-color="#20CF5E"/>
</radialGradient>
<linearGradient id="paint4_linear_97_26258" x1="179.552" y1="7.65996" x2="95.3741" y2="117.887" gradientUnits="userSpaceOnUse">
<stop stop-color="#24A35B"/>
<stop offset="1" stop-color="#27A05A"/>
</linearGradient>
<linearGradient id="paint5_linear_97_26258" x1="10" y1="43.5" x2="12.6422" y2="43.5" gradientUnits="userSpaceOnUse">
<stop stop-color="#188241"/>
<stop offset="1" stop-color="#188241" stop-opacity="0"/>
</linearGradient>
<linearGradient id="paint6_linear_97_26258" x1="39.3903" y1="81.3774" x2="39.3903" y2="78.6256" gradientUnits="userSpaceOnUse">
<stop stop-color="#188241"/>
<stop offset="1" stop-color="#188241" stop-opacity="0"/>
</linearGradient>
<linearGradient id="paint7_linear_97_26258" x1="202" y1="78.6256" x2="199.325" y2="78.6256" gradientUnits="userSpaceOnUse">
<stop stop-color="#188241"/>
<stop offset="1" stop-color="#188241" stop-opacity="0"/>
</linearGradient>
<linearGradient id="paint8_linear_97_26258" x1="199.325" y1="6" x2="199.325" y2="8.31373" gradientUnits="userSpaceOnUse">
<stop stop-color="#188241"/>
<stop offset="1" stop-color="#2CB566" stop-opacity="0"/>
</linearGradient>
<linearGradient id="paint9_linear_97_26258" x1="174.546" y1="54.6391" x2="171.418" y2="54.6391" gradientUnits="userSpaceOnUse">
<stop stop-color="#0E4F33"/>
<stop offset="1" stop-color="#0E4F33" stop-opacity="0"/>
</linearGradient>
<linearGradient id="paint10_linear_97_26258" x1="175.005" y1="93.9154" x2="172.019" y2="94.3235" gradientUnits="userSpaceOnUse">
<stop offset="0.237809" stop-color="#0E4F33"/>
<stop offset="1" stop-color="#0E4F33" stop-opacity="0"/>
</linearGradient>
<linearGradient id="paint11_linear_97_26258" x1="184.874" y1="7.9707" x2="184.874" y2="91.2871" gradientUnits="userSpaceOnUse">
<stop stop-color="#FFD425"/>
<stop offset="1" stop-color="#FFAD24"/>
</linearGradient>
<linearGradient id="paint12_linear_97_26258" x1="189.987" y1="105.273" x2="189.987" y2="86.7754" gradientUnits="userSpaceOnUse">
<stop offset="0.893939" stop-color="#CC8139"/>
<stop offset="1" stop-color="#CC8139" stop-opacity="0"/>
</linearGradient>
</defs>
</svg>
