<svg width="201" height="367" viewBox="0 0 201 367" fill="none" xmlns="http://www.w3.org/2000/svg">
<g filter="url(#filter0_i_4_98995)">
<path d="M127.046 -145.761C144.545 -164.264 153.346 -62.3607 144.546 -50.7607C133.546 -36.2607 93.0459 -41.2607 98.0459 -0.260712C103.046 40.7393 128.878 107.149 124.547 125.239C116.047 160.739 51.0464 173.239 82.0464 219.239C113.046 265.239 64.0464 315.739 111.546 361.239" stroke="url(#paint0_linear_4_98995)" stroke-width="4" stroke-linecap="round"/>
</g>
<g filter="url(#filter1_ii_4_98995)">
<path d="M60.1795 161.728C57.5888 159.482 54.2579 156.253 50.654 154.48C49.9075 154.113 49.9475 155.53 49.1792 155.183C46.4104 153.932 43.0109 151.266 40.1791 150.274C39.5 150.036 39.0626 150.648 38.3922 150.425C35.8662 149.584 32.4192 147.634 30.179 147.001C29.294 146.751 28.9916 147.219 28.179 147.001C26.0345 146.426 23.6193 145.717 22.1789 145.365C20.6221 144.984 21.2162 146.248 20.8343 146.123C18.6929 145.422 15.724 143.03 14.1789 142.313C13.5159 142.006 12.7682 142.407 12.1789 142.092C8.94613 140.365 7.00838 138.629 4.06364 136.502C2.29247 135.223 -0.0356903 136.392 0.0977631 138.573C0.201775 140.272 0.429276 142.135 0.769295 144.112C0.930695 145.051 0.558365 145.138 0.769295 146.123C1.61769 150.087 3.41633 155.265 4.97065 159.569C5.35455 160.633 4.75764 160.67 5.17879 161.728C6.37524 164.736 8.7174 168.731 10.1788 171.547C11.8393 174.745 13.6648 177.726 15.6199 180.477C16.2342 181.341 15.5402 182.183 16.1789 183.001C18.2908 185.707 21.8514 188.161 24.179 190.349C24.9109 191.037 24.4309 192.184 25.179 192.819C29.1267 196.171 33.9981 197.561 38.1791 199.365C39.4307 199.905 38.9277 200.607 40.1791 201.001C52.9663 205.03 67.7454 201.86 74.7833 188.749C79.3161 178.422 70.9166 169.98 63.1796 163.365C61.706 162.105 61.6838 163.032 60.1795 161.728Z" fill="url(#paint1_radial_4_98995)"/>
<path d="M60.1795 161.728C57.5888 159.482 54.2579 156.253 50.654 154.48C49.9075 154.113 49.9475 155.53 49.1792 155.183C46.4104 153.932 43.0109 151.266 40.1791 150.274C39.5 150.036 39.0626 150.648 38.3922 150.425C35.8662 149.584 32.4192 147.634 30.179 147.001C29.294 146.751 28.9916 147.219 28.179 147.001C26.0345 146.426 23.6193 145.717 22.1789 145.365C20.6221 144.984 21.2162 146.248 20.8343 146.123C18.6929 145.422 15.724 143.03 14.1789 142.313C13.5159 142.006 12.7682 142.407 12.1789 142.092C8.94613 140.365 7.00838 138.629 4.06364 136.502C2.29247 135.223 -0.0356903 136.392 0.0977631 138.573C0.201775 140.272 0.429276 142.135 0.769295 144.112C0.930695 145.051 0.558365 145.138 0.769295 146.123C1.61769 150.087 3.41633 155.265 4.97065 159.569C5.35455 160.633 4.75764 160.67 5.17879 161.728C6.37524 164.736 8.7174 168.731 10.1788 171.547C11.8393 174.745 13.6648 177.726 15.6199 180.477C16.2342 181.341 15.5402 182.183 16.1789 183.001C18.2908 185.707 21.8514 188.161 24.179 190.349C24.9109 191.037 24.4309 192.184 25.179 192.819C29.1267 196.171 33.9981 197.561 38.1791 199.365C39.4307 199.905 38.9277 200.607 40.1791 201.001C52.9663 205.03 67.7454 201.86 74.7833 188.749C79.3161 178.422 70.9166 169.98 63.1796 163.365C61.706 162.105 61.6838 163.032 60.1795 161.728Z" fill="url(#paint2_linear_4_98995)" fill-opacity="0.48" style="mix-blend-mode:soft-light"/>
</g>
<mask id="mask0_4_98995" style="mask-type:alpha" maskUnits="userSpaceOnUse" x="0" y="135" width="77" height="68">
<path d="M60.1795 161.728C57.5888 159.482 54.2579 156.253 50.654 154.48C49.9075 154.113 49.9475 155.53 49.1792 155.183C46.4104 153.932 43.0109 151.266 40.1791 150.274C39.5 150.036 39.0626 150.648 38.3922 150.425C35.8662 149.584 32.4192 147.634 30.179 147.001C29.294 146.751 28.9916 147.219 28.179 147.001C26.0345 146.426 23.6193 145.717 22.1789 145.365C20.6221 144.984 21.2162 146.248 20.8343 146.123C18.6929 145.422 15.724 143.03 14.1789 142.313C13.5159 142.006 12.7682 142.407 12.1789 142.092C8.94613 140.365 7.00838 138.629 4.06364 136.502C2.29247 135.223 -0.0356903 136.392 0.0977631 138.573C0.201775 140.272 0.429276 142.135 0.769295 144.112C0.930695 145.051 0.558365 145.138 0.769295 146.123C1.61769 150.087 3.41633 155.265 4.97065 159.569C5.35455 160.633 4.75764 160.67 5.17879 161.728C6.37524 164.736 8.7174 168.731 10.1788 171.547C11.8393 174.745 13.6648 177.726 15.6199 180.477C16.2342 181.341 15.5402 182.183 16.1789 183.001C18.2908 185.707 21.8514 188.161 24.179 190.349C24.9109 191.037 24.4309 192.184 25.179 192.819C29.1267 196.171 33.9981 197.561 38.1791 199.365C39.4307 199.905 38.9277 200.607 40.1791 201.001C52.9663 205.03 67.7454 201.86 74.7833 188.749C79.3161 178.422 70.9166 169.98 63.1796 163.365C61.706 162.105 61.6838 163.032 60.1795 161.728Z" fill="url(#paint3_linear_4_98995)"/>
</mask>
<g mask="url(#mask0_4_98995)">
<g style="mix-blend-mode:overlay" opacity="0.32" filter="url(#filter2_f_4_98995)">
<path d="M75.1777 192.414C73.3267 190.583 71.6572 188.943 70.079 187.456M0.177064 133.91C7.10571 141.252 10.5385 148.404 15.5146 154.637M28.7202 166.696C28.3806 162.101 26.8821 149.51 21.1773 145.365M28.7202 166.696C30.5699 167.807 32.5918 168.827 34.8325 169.747M28.7202 166.696C24.0788 163.91 20.5222 160.559 17.3162 156.819M34.8325 169.747C31.4368 172.771 20.5703 175.019 4.2707 159.819M34.8325 169.747C35.4923 170.018 36.1711 170.28 36.87 170.533M15.5146 154.637C16.1811 152.334 15.6221 144.856 13.1772 142.092M15.5146 154.637C16.1057 155.378 16.7046 156.106 17.3162 156.819M47.0573 173.726C41.9889 178.273 28.5846 186.821 15.5146 181.365M47.0573 173.726C46.0859 173.402 45.0689 173.076 44.0011 172.748M47.0573 173.726C51.1232 175.085 54.3905 176.43 57.2445 177.916M59.282 179.042C56.2258 184.8 36.402 192.744 24.1773 191.183M59.282 179.042C58.624 178.656 57.9468 178.282 57.2445 177.916M59.282 179.042C62.494 180.922 65.2464 183.061 68.207 185.728M44.0011 172.748C42.9433 172.422 41.8355 172.094 40.6728 171.761C39.3412 171.38 38.0756 170.97 36.87 170.533M44.0011 172.748C45.0198 168.438 45.3272 155.547 37.1774 148.637M36.87 170.533C36.1908 164.659 32.0672 148.128 27.1773 145.365M57.2445 177.916C56.905 172.46 53.8824 157.692 48.1775 153.547M68.207 185.728C65.5716 189.183 51.0321 201.001 37.1774 201.001M68.207 185.728C68.8201 186.281 69.4421 186.856 70.079 187.456M70.079 187.456C70.2153 182.85 68.1424 169.765 59.1776 160.092M17.3162 156.819C14.6032 158.456 7.37713 158.128 0.177064 143.728" stroke="url(#paint4_linear_4_98995)" stroke-width="0.25"/>
</g>
<g style="mix-blend-mode:overlay" opacity="0.04" filter="url(#filter3_f_4_98995)">
<path d="M75.1777 192.414C73.3267 190.583 71.6572 188.943 70.079 187.456C69.4421 186.856 68.8201 186.281 68.207 185.728C65.2464 183.061 62.494 180.922 59.282 179.042C58.624 178.656 57.9468 178.282 57.2445 177.916C54.3905 176.43 51.1232 175.085 47.0573 173.726C46.0859 173.402 45.0689 173.076 44.0011 172.748C42.9433 172.422 41.8355 172.094 40.6728 171.761C39.3412 171.38 38.0756 170.97 36.87 170.533C36.1711 170.28 35.4923 170.018 34.8325 169.747C32.5918 168.827 30.5699 167.807 28.7202 166.696C24.0788 163.91 20.5222 160.559 17.3162 156.819C16.7046 156.106 16.1057 155.378 15.5146 154.637C10.5385 148.404 7.10571 143.252 0.177063 135.91" stroke="url(#paint5_linear_4_98995)" stroke-width="0.500002"/>
</g>
</g>
<g filter="url(#filter4_ii_4_98995)">
<path d="M115.542 63.3587C113.621 60.5187 111.239 56.537 108.217 53.8919C107.591 53.344 107.263 54.7233 106.61 54.1892C104.26 52.2645 101.666 48.8091 99.1875 47.118C98.5931 46.7124 98.0121 47.1906 97.4224 46.8016C95.2001 45.3357 92.3753 42.5597 90.3752 41.3686C89.5851 40.8981 89.1719 41.2716 88.4433 40.8509C86.5207 39.7406 84.3713 38.4308 83.0713 37.7174C81.6661 36.9463 81.9127 38.3214 81.5761 38.1019C79.6891 36.8707 77.4405 33.7918 76.1335 32.6994C75.5728 32.2307 74.7468 32.4246 74.259 31.968C71.5832 29.4636 70.1611 27.2843 67.867 24.4683C66.4872 22.7745 63.9358 23.3011 63.5003 25.4419C63.1609 27.1105 62.8987 28.9683 62.7153 30.9665C62.6282 31.915 62.2462 31.9022 62.1949 32.9087C61.9885 36.9568 62.3856 42.4243 62.7729 46.9843C62.8685 48.1106 62.2823 47.992 62.4152 49.1235C62.7925 52.3381 64.0208 56.8034 64.7037 59.9013C65.4796 63.421 66.4715 66.7727 67.648 69.9356C68.0176 70.9294 67.1295 71.5626 67.5346 72.5184C68.8742 75.6788 71.6785 78.9704 73.3604 81.6863C73.8893 82.5403 73.1287 83.5244 73.6869 84.3315C76.6327 88.5904 80.9783 91.1939 84.55 94.0186C85.6192 94.8641 84.9516 95.4121 86.0583 96.1168C97.367 103.318 112.463 104.082 122.654 93.2388C129.706 84.4369 123.777 74.1077 118.016 65.7158C116.919 64.1175 116.657 65.0078 115.542 63.3587Z" fill="url(#paint6_radial_4_98995)"/>
<path d="M115.542 63.3587C113.621 60.5187 111.239 56.537 108.217 53.8919C107.591 53.344 107.263 54.7233 106.61 54.1892C104.26 52.2645 101.666 48.8091 99.1875 47.118C98.5931 46.7124 98.0121 47.1906 97.4224 46.8016C95.2001 45.3357 92.3753 42.5597 90.3752 41.3686C89.5851 40.8981 89.1719 41.2716 88.4433 40.8509C86.5207 39.7406 84.3713 38.4308 83.0713 37.7174C81.6661 36.9463 81.9127 38.3214 81.5761 38.1019C79.6891 36.8707 77.4405 33.7918 76.1335 32.6994C75.5728 32.2307 74.7468 32.4246 74.259 31.968C71.5832 29.4636 70.1611 27.2843 67.867 24.4683C66.4872 22.7745 63.9358 23.3011 63.5003 25.4419C63.1609 27.1105 62.8987 28.9683 62.7153 30.9665C62.6282 31.915 62.2462 31.9022 62.1949 32.9087C61.9885 36.9568 62.3856 42.4243 62.7729 46.9843C62.8685 48.1106 62.2823 47.992 62.4152 49.1235C62.7925 52.3381 64.0208 56.8034 64.7037 59.9013C65.4796 63.421 66.4715 66.7727 67.648 69.9356C68.0176 70.9294 67.1295 71.5626 67.5346 72.5184C68.8742 75.6788 71.6785 78.9704 73.3604 81.6863C73.8893 82.5403 73.1287 83.5244 73.6869 84.3315C76.6327 88.5904 80.9783 91.1939 84.55 94.0186C85.6192 94.8641 84.9516 95.4121 86.0583 96.1168C97.367 103.318 112.463 104.082 122.654 93.2388C129.706 84.4369 123.777 74.1077 118.016 65.7158C116.919 64.1175 116.657 65.0078 115.542 63.3587Z" fill="url(#paint7_linear_4_98995)" fill-opacity="0.48" style="mix-blend-mode:soft-light"/>
</g>
<mask id="mask1_4_98995" style="mask-type:alpha" maskUnits="userSpaceOnUse" x="62" y="23" width="64" height="79">
<path d="M115.542 63.3587C113.621 60.5187 111.239 56.537 108.217 53.8919C107.591 53.344 107.263 54.7233 106.61 54.1892C104.26 52.2645 101.666 48.8091 99.1875 47.118C98.5931 46.7124 98.0121 47.1906 97.4224 46.8016C95.2001 45.3357 92.3753 42.5597 90.3752 41.3686C89.5851 40.8981 89.1719 41.2716 88.4433 40.8509C86.5207 39.7406 84.3713 38.4308 83.0713 37.7174C81.6661 36.9463 81.9127 38.3214 81.5761 38.1019C79.6891 36.8707 77.4405 33.7918 76.1335 32.6994C75.5728 32.2307 74.7468 32.4246 74.259 31.968C71.5832 29.4636 70.1611 27.2843 67.867 24.4683C66.4872 22.7745 63.9358 23.3011 63.5003 25.4419C63.1609 27.1105 62.8987 28.9683 62.7153 30.9665C62.6282 31.915 62.2462 31.9022 62.1949 32.9087C61.9885 36.9568 62.3856 42.4243 62.7729 46.9843C62.8685 48.1106 62.2823 47.992 62.4152 49.1235C62.7925 52.3381 64.0208 56.8034 64.7037 59.9013C65.4796 63.421 66.4715 66.7727 67.648 69.9356C68.0176 70.9294 67.1295 71.5626 67.5346 72.5184C68.8742 75.6788 71.6785 78.9704 73.3604 81.6863C73.8893 82.5403 73.1287 83.5244 73.6869 84.3315C76.6327 88.5904 80.9783 91.1939 84.55 94.0186C85.6192 94.8641 84.9516 95.4121 86.0583 96.1168C97.367 103.318 112.463 104.082 122.654 93.2388C129.706 84.4369 123.777 74.1077 118.016 65.7158C116.919 64.1175 116.657 65.0078 115.542 63.3587Z" fill="url(#paint8_linear_4_98995)"/>
</mask>
<g mask="url(#mask1_4_98995)">
<g style="mix-blend-mode:overlay" opacity="0.32" filter="url(#filter5_f_4_98995)">
<path d="M122.087 96.8805C120.773 94.6331 119.585 92.6163 118.445 90.7715M64.7839 20.9586C69.5762 29.844 71.0412 37.64 74.2342 44.9493M83.8688 60.0151C84.7301 55.4884 86.5415 42.9389 82.1039 37.4581M83.8688 60.0151C85.3681 61.5664 87.057 63.0756 88.9832 64.5441M83.8688 60.0151C80.1067 56.1226 77.5385 51.9655 75.4098 47.5231M88.9832 64.5441C84.9205 66.5862 73.8425 65.9451 62.0323 47.0444M88.9832 64.5441C89.5504 64.9765 90.1382 65.4053 90.7478 65.8307M74.2342 44.9493C75.4741 42.8972 76.8698 35.5286 75.2235 32.2263M74.2342 44.9493C74.6135 45.8177 75.0037 46.6756 75.4098 47.5231M99.7616 71.5515C93.689 74.6316 78.5291 79.419 67.3167 70.7658M99.7616 71.5515C98.9073 70.9864 98.0092 70.4089 97.0628 69.8153M99.7616 71.5515C103.337 73.9164 106.145 76.0613 108.517 78.2356M110.194 79.8498C105.752 84.6205 84.5473 87.163 73.1431 82.4916M110.194 79.8498C109.658 79.3075 109.101 78.7707 108.517 78.2356M110.194 79.8498C112.81 82.4973 114.915 85.276 117.084 88.6186M97.0628 69.8153C96.1252 69.2273 95.1401 68.6236 94.1033 68.001C92.9157 67.2878 91.7993 66.5645 90.7478 65.8307M97.0628 69.8153C99.1622 65.9163 102.796 53.5435 96.7118 44.7605M90.7478 65.8307C91.6122 59.9807 91.9075 42.9461 87.8995 39.0111M108.517 78.2356C109.601 72.877 110.504 57.8301 106.067 52.3493M117.084 88.6186C113.645 91.2733 96.5417 98.9257 83.1591 95.3399M117.084 88.6186C117.534 89.3108 117.986 90.0271 118.445 90.7715M118.445 90.7715C119.769 86.3577 121.154 73.1822 114.998 61.5188M75.4098 47.5231C72.3657 48.4015 65.4705 46.2151 62.2428 30.4423" stroke="url(#paint9_linear_4_98995)" stroke-width="0.25"/>
</g>
<g style="mix-blend-mode:overlay" opacity="0.04" filter="url(#filter6_f_4_98995)">
<path d="M122.087 96.8806C120.773 94.6331 119.585 92.6163 118.445 90.7715C117.985 90.0272 117.533 89.3108 117.084 88.6186C114.914 85.276 112.809 82.4973 110.194 79.8498C109.658 79.3075 109.1 78.7707 108.517 78.2357C106.145 76.0613 103.337 73.9165 99.7611 71.5515C98.9069 70.9865 98.0088 70.4089 97.0624 69.8153C96.1248 69.2273 95.1397 68.6236 94.1028 68.001C92.9153 67.2879 91.7989 66.5645 90.7474 65.8307C90.1378 65.4054 89.55 64.9765 88.9828 64.5441C87.0565 63.0756 85.3676 61.5664 83.8683 60.0151C80.1063 56.1227 77.5381 51.9655 75.4093 47.5231C75.0032 46.6756 74.6131 45.8177 74.2338 44.9493C71.0407 37.64 69.0581 31.7759 64.2659 22.8905" stroke="url(#paint10_linear_4_98995)" stroke-width="0.500002"/>
</g>
</g>
<g filter="url(#filter7_ii_4_98995)">
<path d="M123.633 20.1593C126.158 19.672 129.533 18.8233 132.538 19.0234C133.161 19.0648 132.603 19.9704 133.233 20.0331C135.5 20.259 138.708 19.802 140.919 20.2195C141.45 20.3197 141.504 20.8814 142.023 20.9878C143.979 21.3889 146.949 21.4148 148.642 21.8439C149.31 22.0134 149.331 22.4306 149.941 22.5939C151.549 23.0247 153.384 23.47 154.452 23.781C155.606 24.1173 154.746 24.7158 155.041 24.7778C156.694 25.1257 159.52 24.6853 160.792 24.7991C161.338 24.848 161.673 25.3888 162.174 25.4054C164.921 25.4963 166.831 25.0947 169.541 24.8179C171.171 24.6514 172.245 26.2837 171.341 27.65C170.636 28.7149 169.79 29.8393 168.827 30.9962C168.37 31.5454 168.58 31.7413 168.073 32.3022C166.036 34.5585 162.926 37.2475 160.302 39.4604C159.654 40.007 160.028 40.2549 159.357 40.7846C157.452 42.2893 154.433 44.006 152.428 45.2867C150.15 46.7418 147.846 47.9933 145.545 49.0468C144.822 49.3777 144.957 50.1845 144.235 50.4766C141.849 51.4422 138.616 51.7007 136.284 52.249C135.55 52.4214 135.432 53.3467 134.708 53.4787C130.887 54.1751 127.201 53.2512 123.809 52.855C122.794 52.7364 122.857 53.381 121.897 53.1679C112.08 50.9895 103.669 43.3887 104.015 32.2336C104.943 23.8262 113.565 21.4922 121.071 20.0972C122.501 19.8315 122.167 20.4423 123.633 20.1593Z" fill="url(#paint11_radial_4_98995)"/>
<path d="M123.633 20.1593C126.158 19.672 129.533 18.8233 132.538 19.0234C133.161 19.0648 132.603 19.9704 133.233 20.0331C135.5 20.259 138.708 19.802 140.919 20.2195C141.45 20.3197 141.504 20.8814 142.023 20.9878C143.979 21.3889 146.949 21.4148 148.642 21.8439C149.31 22.0134 149.331 22.4306 149.941 22.5939C151.549 23.0247 153.384 23.47 154.452 23.781C155.606 24.1173 154.746 24.7158 155.041 24.7778C156.694 25.1257 159.52 24.6853 160.792 24.7991C161.338 24.848 161.673 25.3888 162.174 25.4054C164.921 25.4963 166.831 25.0947 169.541 24.8179C171.171 24.6514 172.245 26.2837 171.341 27.65C170.636 28.7149 169.79 29.8393 168.827 30.9962C168.37 31.5454 168.58 31.7413 168.073 32.3022C166.036 34.5585 162.926 37.2475 160.302 39.4604C159.654 40.007 160.028 40.2549 159.357 40.7846C157.452 42.2893 154.433 44.006 152.428 45.2867C150.15 46.7418 147.846 47.9933 145.545 49.0468C144.822 49.3777 144.957 50.1845 144.235 50.4766C141.849 51.4422 138.616 51.7007 136.284 52.249C135.55 52.4214 135.432 53.3467 134.708 53.4787C130.887 54.1751 127.201 53.2512 123.809 52.855C122.794 52.7364 122.857 53.381 121.897 53.1679C112.08 50.9895 103.669 43.3887 104.015 32.2336C104.943 23.8262 113.565 21.4922 121.071 20.0972C122.501 19.8315 122.167 20.4423 123.633 20.1593Z" fill="url(#paint12_linear_4_98995)" fill-opacity="0.48" style="mix-blend-mode:soft-light"/>
</g>
<mask id="mask2_4_98995" style="mask-type:alpha" maskUnits="userSpaceOnUse" x="104" y="18" width="68" height="36">
<path d="M123.633 20.1593C126.158 19.672 129.533 18.8233 132.538 19.0234C133.161 19.0648 132.603 19.9704 133.233 20.0331C135.5 20.259 138.708 19.802 140.919 20.2195C141.45 20.3197 141.504 20.8814 142.023 20.9878C143.979 21.3889 146.949 21.4148 148.642 21.8439C149.31 22.0134 149.331 22.4306 149.941 22.5939C151.549 23.0247 153.384 23.47 154.452 23.781C155.606 24.1173 154.746 24.7158 155.041 24.7778C156.694 25.1257 159.52 24.6853 160.792 24.7991C161.338 24.848 161.673 25.3888 162.174 25.4054C164.921 25.4963 166.831 25.0947 169.541 24.8179C171.171 24.6514 172.245 26.2837 171.341 27.65C170.636 28.7149 169.79 29.8393 168.827 30.9962C168.37 31.5454 168.58 31.7413 168.073 32.3022C166.036 34.5585 162.926 37.2475 160.302 39.4604C159.654 40.007 160.028 40.2549 159.357 40.7846C157.452 42.2893 154.433 44.006 152.428 45.2867C150.15 46.7418 147.846 47.9933 145.545 49.0468C144.822 49.3777 144.957 50.1845 144.235 50.4766C141.849 51.4422 138.616 51.7007 136.284 52.249C135.55 52.4214 135.432 53.3467 134.708 53.4787C130.887 54.1751 127.201 53.2512 123.809 52.855C122.794 52.7364 122.857 53.381 121.897 53.1679C112.08 50.9895 103.669 43.3887 104.015 32.2336C104.943 23.8262 113.565 21.4922 121.071 20.0972C122.501 19.8315 122.167 20.4423 123.633 20.1593Z" fill="url(#paint13_linear_4_98995)"/>
</mask>
<g mask="url(#mask2_4_98995)">
<g style="mix-blend-mode:overlay" opacity="0.32" filter="url(#filter8_f_4_98995)">
<path d="M102.385 34.4656C104.274 33.9706 105.973 33.5311 107.556 33.1571M173.038 24.5916C165.784 26.7622 160.873 30.1198 155.303 32.3028M142.204 35.1831C144.148 32.3257 149.843 24.7097 155.103 24.1564M142.204 35.1831C140.586 35.2107 138.89 35.1154 137.09 34.8726M142.204 35.1831C146.263 35.114 149.83 34.2713 153.315 33.0443M137.09 34.8726C138.161 38.1102 144.376 43.6452 160.663 39.8849M137.09 34.8726C136.56 34.8011 136.021 34.7168 135.472 34.6192M155.303 32.3028C155.734 30.557 158.902 25.9089 161.526 25.0308M155.303 32.3028C154.642 32.5621 153.98 32.8102 153.315 33.0443M127.657 32.8728C129.244 37.7267 134.745 48.3053 145.281 49.6626M127.657 32.8728C128.41 33.0262 129.193 33.1961 130.009 33.3833M127.657 32.8728C124.507 32.2307 121.88 31.8791 119.469 31.7742M117.724 31.741C117.55 36.6269 127.447 49.2206 135.972 52.7912M117.724 31.741C118.296 31.7375 118.876 31.7484 119.469 31.7742M117.724 31.741C114.933 31.7577 112.343 32.115 109.42 32.7372M130.009 33.3833C130.819 33.5687 131.661 33.7709 132.541 33.9906C133.549 34.2422 134.525 34.4506 135.472 34.6192M130.009 33.3833C130.964 30.2022 135.599 21.7135 143.483 20.2821M135.472 34.6192C138.116 31.0583 146.993 21.8677 151.205 21.9064M119.469 31.7742C121.736 28.3573 129.237 19.8988 134.497 19.3456M109.42 32.7372C109.836 35.9693 114.848 49.0977 123.847 54.2933M109.42 32.7372C108.814 32.8661 108.195 33.0063 107.556 33.1571M107.556 33.1571C109.195 30.1143 115.448 22.3928 124.898 19.472M153.315 33.0443C154.464 35.1245 159.28 37.6217 169.356 30.9687" stroke="url(#paint14_linear_4_98995)" stroke-width="0.1875"/>
</g>
<g style="mix-blend-mode:overlay" opacity="0.04" filter="url(#filter9_f_4_98995)">
<path d="M102.385 34.4659C104.274 33.9709 105.973 33.5313 107.556 33.1574C108.195 33.0065 108.814 32.8663 109.42 32.7375C112.343 32.1153 114.933 31.758 117.724 31.7412C118.296 31.7378 118.876 31.7487 119.469 31.7745C121.88 31.8793 124.507 32.231 127.657 32.873C128.41 33.0264 129.193 33.1964 130.009 33.3835C130.819 33.5689 131.661 33.7712 132.541 33.9909C133.549 34.2425 134.525 34.4509 135.472 34.6194C136.021 34.7171 136.56 34.8014 137.09 34.8729C138.89 35.1157 140.586 35.211 142.204 35.1834C146.263 35.1142 149.83 34.2716 153.315 33.0446C153.98 32.8105 154.642 32.5624 155.303 32.303C160.873 30.12 165.034 28.0616 172.288 25.8909" stroke="url(#paint15_linear_4_98995)" stroke-width="0.375002"/>
</g>
</g>
<g filter="url(#filter10_ii_4_98995)">
<path d="M95.5141 193.943C98.039 193.455 101.414 192.607 104.419 192.807C105.042 192.848 104.484 193.754 105.114 193.816C107.381 194.042 110.589 193.585 112.8 194.003C113.33 194.103 113.385 194.665 113.904 194.771C115.86 195.172 118.83 195.198 120.523 195.627C121.191 195.797 121.212 196.214 121.822 196.377C123.43 196.808 125.265 197.253 126.333 197.564C127.487 197.901 126.627 198.499 126.922 198.561C128.575 198.909 131.401 198.469 132.673 198.582C133.219 198.631 133.554 199.172 134.055 199.189C136.802 199.279 138.712 198.878 141.422 198.601C143.052 198.435 144.126 200.067 143.222 201.433C142.517 202.498 141.671 203.622 140.708 204.779C140.251 205.329 140.461 205.524 139.954 206.085C137.917 208.342 134.807 211.031 132.183 213.244C131.535 213.79 131.909 214.038 131.238 214.568C129.333 216.073 126.314 217.789 124.309 219.07C122.031 220.525 119.727 221.776 117.426 222.83C116.703 223.161 116.838 223.968 116.116 224.26C113.73 225.225 110.497 225.484 108.164 226.032C107.431 226.205 107.313 227.13 106.588 227.262C102.768 227.958 99.0823 227.034 95.6901 226.638C94.6746 226.52 94.7381 227.164 93.7774 226.951C83.9611 224.773 75.5503 217.172 75.8957 206.017C76.8242 197.609 85.446 195.275 92.9519 193.88C94.3814 193.615 94.0479 194.225 95.5141 193.943Z" fill="url(#paint16_radial_4_98995)"/>
<path d="M95.5141 193.943C98.039 193.455 101.414 192.607 104.419 192.807C105.042 192.848 104.484 193.754 105.114 193.816C107.381 194.042 110.589 193.585 112.8 194.003C113.33 194.103 113.385 194.665 113.904 194.771C115.86 195.172 118.83 195.198 120.523 195.627C121.191 195.797 121.212 196.214 121.822 196.377C123.43 196.808 125.265 197.253 126.333 197.564C127.487 197.901 126.627 198.499 126.922 198.561C128.575 198.909 131.401 198.469 132.673 198.582C133.219 198.631 133.554 199.172 134.055 199.189C136.802 199.279 138.712 198.878 141.422 198.601C143.052 198.435 144.126 200.067 143.222 201.433C142.517 202.498 141.671 203.622 140.708 204.779C140.251 205.329 140.461 205.524 139.954 206.085C137.917 208.342 134.807 211.031 132.183 213.244C131.535 213.79 131.909 214.038 131.238 214.568C129.333 216.073 126.314 217.789 124.309 219.07C122.031 220.525 119.727 221.776 117.426 222.83C116.703 223.161 116.838 223.968 116.116 224.26C113.73 225.225 110.497 225.484 108.164 226.032C107.431 226.205 107.313 227.13 106.588 227.262C102.768 227.958 99.0823 227.034 95.6901 226.638C94.6746 226.52 94.7381 227.164 93.7774 226.951C83.9611 224.773 75.5503 217.172 75.8957 206.017C76.8242 197.609 85.446 195.275 92.9519 193.88C94.3814 193.615 94.0479 194.225 95.5141 193.943Z" fill="url(#paint17_linear_4_98995)" fill-opacity="0.48" style="mix-blend-mode:soft-light"/>
</g>
<mask id="mask3_4_98995" style="mask-type:alpha" maskUnits="userSpaceOnUse" x="75" y="192" width="69" height="36">
<path d="M95.5141 193.943C98.039 193.455 101.414 192.607 104.419 192.807C105.042 192.848 104.484 193.754 105.114 193.816C107.381 194.042 110.589 193.585 112.8 194.003C113.33 194.103 113.385 194.665 113.904 194.771C115.86 195.172 118.83 195.198 120.523 195.627C121.191 195.797 121.212 196.214 121.822 196.377C123.43 196.808 125.265 197.253 126.333 197.564C127.487 197.901 126.627 198.499 126.922 198.561C128.575 198.909 131.401 198.469 132.673 198.582C133.219 198.631 133.554 199.172 134.055 199.189C136.802 199.279 138.712 198.878 141.422 198.601C143.052 198.435 144.126 200.067 143.222 201.433C142.517 202.498 141.671 203.622 140.708 204.779C140.251 205.329 140.461 205.524 139.954 206.085C137.917 208.342 134.807 211.031 132.183 213.244C131.535 213.79 131.909 214.038 131.238 214.568C129.333 216.073 126.314 217.789 124.309 219.07C122.031 220.525 119.727 221.776 117.426 222.83C116.703 223.161 116.838 223.968 116.116 224.26C113.73 225.225 110.497 225.484 108.164 226.032C107.431 226.205 107.313 227.13 106.588 227.262C102.768 227.958 99.0823 227.034 95.6901 226.638C94.6746 226.52 94.7381 227.164 93.7774 226.951C83.9611 224.773 75.5503 217.172 75.8957 206.017C76.8242 197.609 85.446 195.275 92.9519 193.88C94.3814 193.615 94.0479 194.225 95.5141 193.943Z" fill="url(#paint18_linear_4_98995)"/>
</mask>
<g mask="url(#mask3_4_98995)">
<g style="mix-blend-mode:overlay" opacity="0.32" filter="url(#filter11_f_4_98995)">
<path d="M74.2657 208.249C76.1545 207.754 77.8541 207.314 79.4368 206.94M144.919 198.375C137.665 200.545 132.754 203.903 127.184 206.086M114.085 208.966C116.029 206.109 121.724 198.493 126.983 197.94M114.085 208.966C112.467 208.994 110.771 208.899 108.971 208.656M114.085 208.966C118.144 208.897 121.711 208.054 125.196 206.827M108.971 208.656C110.042 211.893 116.257 217.428 132.544 213.668M108.971 208.656C108.441 208.584 107.901 208.5 107.353 208.402M127.184 206.086C127.615 204.34 130.783 199.692 133.407 198.814M127.184 206.086C126.523 206.345 125.861 206.593 125.196 206.827M99.5384 206.656C101.125 211.51 106.626 222.089 117.162 223.446M99.5384 206.656C100.291 206.809 101.074 206.979 101.89 207.166M99.5384 206.656C96.3879 206.014 93.7613 205.662 91.3502 205.557M89.6049 205.524C89.4307 210.41 99.3276 223.004 107.853 226.574M89.6049 205.524C90.1766 205.521 90.7569 205.532 91.3502 205.557M89.6049 205.524C86.8135 205.541 84.2236 205.898 81.3004 206.52M101.89 207.166C102.699 207.352 103.542 207.554 104.422 207.774C105.43 208.025 106.406 208.234 107.353 208.402M101.89 207.166C102.845 203.985 107.479 195.497 115.364 194.065M107.353 208.402C109.997 204.842 118.874 195.651 123.086 195.69M91.3502 205.557C93.617 202.141 101.118 193.682 106.378 193.129M81.3004 206.52C81.7167 209.753 86.7285 222.881 95.7274 228.076M81.3004 206.52C80.695 206.649 80.0754 206.789 79.4368 206.94M79.4368 206.94C81.0755 203.897 87.3287 196.176 96.7788 193.255M125.196 206.827C126.344 208.908 131.161 211.405 141.237 204.752" stroke="url(#paint19_linear_4_98995)" stroke-width="0.1875"/>
</g>
<g style="mix-blend-mode:overlay" opacity="0.04" filter="url(#filter12_f_4_98995)">
<path d="M74.2657 208.249C76.1545 207.754 77.8541 207.315 79.4368 206.941C80.0754 206.79 80.695 206.65 81.3004 206.521C84.2236 205.898 86.8135 205.541 89.6049 205.524C90.1766 205.521 90.7569 205.532 91.3502 205.558C93.7613 205.663 96.3879 206.014 99.5384 206.656C100.291 206.81 101.074 206.98 101.89 207.167C102.699 207.352 103.542 207.554 104.422 207.774C105.43 208.026 106.406 208.234 107.353 208.403C107.901 208.5 108.441 208.585 108.971 208.656C110.771 208.899 112.467 208.994 114.085 208.967C118.144 208.897 121.711 208.055 125.196 206.828C125.861 206.594 126.523 206.346 127.184 206.086C132.754 203.903 136.915 201.845 144.169 199.674" stroke="url(#paint20_linear_4_98995)" stroke-width="0.375002"/>
</g>
</g>
<g filter="url(#filter13_ii_4_98995)">
<path d="M68.5518 298.304C65.9868 298.487 62.5075 298.541 59.6561 299.512C59.0655 299.713 59.8383 300.444 59.2468 300.667C57.1151 301.472 53.8982 301.861 51.8703 302.837C51.384 303.071 51.4767 303.627 51.0028 303.864C49.2174 304.758 46.355 305.552 44.8313 306.404C44.2294 306.741 44.3171 307.149 43.7707 307.465C42.3285 308.297 40.6717 309.202 39.7209 309.779C38.693 310.403 39.6787 310.758 39.4099 310.894C37.9026 311.658 35.0595 311.964 33.8599 312.404C33.3452 312.592 33.1614 313.201 32.6819 313.347C30.0519 314.146 28.103 314.252 25.4137 314.686C23.7961 314.947 23.1814 316.802 24.4086 317.887C25.3651 318.734 26.4734 319.601 27.7025 320.469C28.2859 320.881 28.1344 321.125 28.7688 321.535C31.3208 323.188 35.0209 324.98 38.128 326.438C38.8954 326.799 38.5985 327.135 39.3833 327.473C41.6127 328.433 44.9736 329.31 47.2418 330.028C49.8189 330.844 52.3679 331.457 54.8635 331.879C55.6476 332.011 55.7258 332.826 56.4985 332.921C59.0536 333.236 62.2432 332.649 64.6379 332.575C65.391 332.552 65.7449 333.415 66.4784 333.355C70.3493 333.038 73.67 331.192 76.844 329.932C77.7942 329.554 77.8998 330.193 78.7725 329.739C87.6905 325.094 93.8475 315.575 90.6267 304.89C87.5539 297.009 78.6218 296.986 71.0106 297.581C69.561 297.695 70.0412 298.198 68.5518 298.304Z" fill="url(#paint21_radial_4_98995)"/>
<path d="M68.5518 298.304C65.9868 298.487 62.5075 298.541 59.6561 299.512C59.0655 299.713 59.8383 300.444 59.2468 300.667C57.1151 301.472 53.8982 301.861 51.8703 302.837C51.384 303.071 51.4767 303.627 51.0028 303.864C49.2174 304.758 46.355 305.552 44.8313 306.404C44.2294 306.741 44.3171 307.149 43.7707 307.465C42.3285 308.297 40.6717 309.202 39.7209 309.779C38.693 310.403 39.6787 310.758 39.4099 310.894C37.9026 311.658 35.0595 311.964 33.8599 312.404C33.3452 312.592 33.1614 313.201 32.6819 313.347C30.0519 314.146 28.103 314.252 25.4137 314.686C23.7961 314.947 23.1814 316.802 24.4086 317.887C25.3651 318.734 26.4734 319.601 27.7025 320.469C28.2859 320.881 28.1344 321.125 28.7688 321.535C31.3208 323.188 35.0209 324.98 38.128 326.438C38.8954 326.799 38.5985 327.135 39.3833 327.473C41.6127 328.433 44.9736 329.31 47.2418 330.028C49.8189 330.844 52.3679 331.457 54.8635 331.879C55.6476 332.011 55.7258 332.826 56.4985 332.921C59.0536 333.236 62.2432 332.649 64.6379 332.575C65.391 332.552 65.7449 333.415 66.4784 333.355C70.3493 333.038 73.67 331.192 76.844 329.932C77.7942 329.554 77.8998 330.193 78.7725 329.739C87.6905 325.094 93.8475 315.575 90.6267 304.89C87.5539 297.009 78.6218 296.986 71.0106 297.581C69.561 297.695 70.0412 298.198 68.5518 298.304Z" fill="url(#paint22_linear_4_98995)" fill-opacity="0.48" style="mix-blend-mode:soft-light"/>
</g>
<mask id="mask4_4_98995" style="mask-type:alpha" maskUnits="userSpaceOnUse" x="23" y="297" width="69" height="37">
<path d="M68.5523 298.305C65.9873 298.487 62.508 298.541 59.6566 299.512C59.066 299.713 59.8388 300.444 59.2473 300.667C57.1156 301.472 53.8987 301.861 51.8708 302.837C51.3845 303.071 51.4772 303.627 51.0033 303.865C49.2178 304.758 46.3555 305.552 44.8318 306.404C44.2299 306.741 44.3176 307.15 43.7712 307.465C42.329 308.298 40.6722 309.203 39.7213 309.779C38.6935 310.403 39.6792 310.758 39.4104 310.895C37.9031 311.659 35.06 311.965 33.8604 312.404C33.3457 312.592 33.1619 313.201 32.6824 313.347C30.0523 314.146 28.1035 314.252 25.4142 314.686C23.7966 314.947 23.1819 316.802 24.4091 317.888C25.3656 318.734 26.4739 319.601 27.703 320.469C28.2864 320.882 28.1348 321.125 28.7693 321.536C31.3213 323.188 35.0214 324.98 38.1285 326.439C38.8959 326.799 38.599 327.135 39.3838 327.473C41.6132 328.434 44.9741 329.31 47.2423 330.028C49.8194 330.844 52.3684 331.457 54.864 331.879C55.648 332.011 55.7263 332.826 56.499 332.921C59.0541 333.236 62.2437 332.649 64.6384 332.575C65.3915 332.552 65.7454 333.415 66.4789 333.355C70.3498 333.039 73.6705 331.192 76.8445 329.932C77.7947 329.554 77.9003 330.194 78.773 329.739C87.691 325.094 93.848 315.576 90.6272 304.89C87.5544 297.009 78.6223 296.986 71.0111 297.581C69.5615 297.695 70.0417 298.198 68.5523 298.305Z" fill="url(#paint23_linear_4_98995)"/>
</mask>
<g mask="url(#mask4_4_98995)">
<g style="mix-blend-mode:overlay" opacity="0.32" filter="url(#filter14_f_4_98995)">
<path d="M92.7797 306.624C90.8272 306.635 89.0717 306.65 87.4462 306.698M21.9783 315.373C29.5466 315.592 35.1596 317.564 41.1045 318.231M54.503 317.623C51.8859 315.366 44.414 309.483 39.19 310.31M54.503 317.623C56.0728 317.231 57.6865 316.7 59.3626 315.999M54.503 317.623C50.564 318.607 46.9008 318.716 43.2171 318.433M59.3626 315.999C59.1655 319.404 54.5949 326.359 37.8897 326.942M59.3626 315.999C59.8562 315.793 60.3551 315.572 60.86 315.336M41.1045 318.231C40.2367 316.656 35.974 312.986 33.2117 312.817M41.1045 318.231C41.8108 318.31 42.5143 318.379 43.2171 318.433M67.9559 311.626C67.6794 316.726 65.1039 328.368 55.2788 332.405M67.9559 311.626C67.2686 311.969 66.5566 312.336 65.8162 312.728M67.9559 311.626C70.8329 310.191 73.279 309.171 75.5808 308.446M77.258 307.962C78.6908 312.637 72.3906 327.363 65.0798 333.018M77.258 307.962C76.7048 308.107 76.1472 308.268 75.5808 308.446M77.258 307.962C79.9586 307.256 82.5528 306.931 85.5374 306.775M65.8162 312.728C65.0827 313.117 64.3212 313.53 63.5279 313.97C62.6194 314.474 61.731 314.928 60.86 315.336M65.8162 312.728C64.071 309.903 57.3972 302.903 49.411 303.561M60.86 315.336C57.3845 312.581 46.4309 306.001 42.372 307.128M75.5808 308.446C72.5069 305.732 63.0721 299.503 57.8481 300.33M85.5374 306.775C85.9718 310.005 84.5286 323.983 77.181 331.331M85.5374 306.775C86.1554 306.743 86.7902 306.718 87.4462 306.698M87.4462 306.698C85.0757 304.183 77.0371 298.343 67.1531 297.968M43.2171 318.433C42.6461 320.739 38.6403 324.398 27.1852 320.58" stroke="url(#paint24_linear_4_98995)" stroke-width="0.1875"/>
</g>
<g style="mix-blend-mode:overlay" opacity="0.04" filter="url(#filter15_f_4_98995)">
<path d="M92.7801 306.624C90.8276 306.635 89.0721 306.65 87.4465 306.698C86.7906 306.718 86.1558 306.743 85.5378 306.775C82.5531 306.931 79.9589 307.256 77.2584 307.962C76.7052 308.107 76.1476 308.267 75.5812 308.446C73.2793 309.171 70.8333 310.191 67.9563 311.626C67.269 311.969 66.557 312.336 65.8166 312.728C65.0831 313.117 64.3216 313.53 63.5283 313.97C62.6198 314.474 61.7313 314.928 60.8604 315.336C60.3555 315.572 59.8565 315.793 59.363 315.999C57.6868 316.7 56.0732 317.231 54.5034 317.623C50.5644 318.607 46.9012 318.716 43.2175 318.433C42.5147 318.379 41.8112 318.31 41.1049 318.231C35.16 317.564 30.6076 316.653 23.0393 316.433" stroke="url(#paint25_linear_4_98995)" stroke-width="0.375002"/>
</g>
</g>
<g filter="url(#filter16_ii_4_98995)">
<path d="M95.0898 141.864C93.7944 140.741 92.1289 139.126 90.327 138.24C89.9538 138.056 89.9738 138.765 89.5896 138.591C88.2052 137.966 86.5054 136.633 85.0896 136.137C84.75 136.018 84.5313 136.324 84.1961 136.212C82.9331 135.792 81.2096 134.817 80.0895 134.501C79.647 134.376 79.4958 134.609 79.0895 134.501C78.0172 134.213 76.8096 133.859 76.0895 133.682C75.311 133.492 75.6081 134.124 75.4171 134.062C74.3464 133.711 72.862 132.515 72.0894 132.157C71.7579 132.003 71.3841 132.203 71.0894 132.046C69.4731 131.183 68.5042 130.314 67.0318 129.251C66.1462 128.612 64.9822 129.196 65.0489 130.286C65.1009 131.136 65.2146 132.067 65.3846 133.056C65.4653 133.526 65.2792 133.569 65.3846 134.062C65.8088 136.043 66.7082 138.633 67.4853 140.785C67.6773 141.316 67.3788 141.335 67.5894 141.864C68.1876 143.368 69.3587 145.365 70.0894 146.773C70.9196 148.373 71.8324 149.863 72.81 151.238C73.1171 151.671 72.7701 152.091 73.0894 152.501C74.1454 153.854 75.9257 155.08 77.0895 156.174C77.4555 156.518 77.2154 157.092 77.5895 157.41C79.5633 159.085 81.999 159.78 84.0895 160.682C84.7154 160.952 84.4639 161.303 85.0896 161.501C91.4831 163.515 98.8727 161.93 102.392 155.375C104.658 150.211 100.458 145.99 96.5898 142.682C95.853 142.052 95.8419 142.516 95.0898 141.864Z" fill="url(#paint26_radial_4_98995)"/>
<path d="M95.0898 141.864C93.7944 140.741 92.1289 139.126 90.327 138.24C89.9538 138.056 89.9738 138.765 89.5896 138.591C88.2052 137.966 86.5054 136.633 85.0896 136.137C84.75 136.018 84.5313 136.324 84.1961 136.212C82.9331 135.792 81.2096 134.817 80.0895 134.501C79.647 134.376 79.4958 134.609 79.0895 134.501C78.0172 134.213 76.8096 133.859 76.0895 133.682C75.311 133.492 75.6081 134.124 75.4171 134.062C74.3464 133.711 72.862 132.515 72.0894 132.157C71.7579 132.003 71.3841 132.203 71.0894 132.046C69.4731 131.183 68.5042 130.314 67.0318 129.251C66.1462 128.612 64.9822 129.196 65.0489 130.286C65.1009 131.136 65.2146 132.067 65.3846 133.056C65.4653 133.526 65.2792 133.569 65.3846 134.062C65.8088 136.043 66.7082 138.633 67.4853 140.785C67.6773 141.316 67.3788 141.335 67.5894 141.864C68.1876 143.368 69.3587 145.365 70.0894 146.773C70.9196 148.373 71.8324 149.863 72.81 151.238C73.1171 151.671 72.7701 152.091 73.0894 152.501C74.1454 153.854 75.9257 155.08 77.0895 156.174C77.4555 156.518 77.2154 157.092 77.5895 157.41C79.5633 159.085 81.999 159.78 84.0895 160.682C84.7154 160.952 84.4639 161.303 85.0896 161.501C91.4831 163.515 98.8727 161.93 102.392 155.375C104.658 150.211 100.458 145.99 96.5898 142.682C95.853 142.052 95.8419 142.516 95.0898 141.864Z" fill="url(#paint27_linear_4_98995)" fill-opacity="0.48" style="mix-blend-mode:soft-light"/>
</g>
<mask id="mask5_4_98995" style="mask-type:alpha" maskUnits="userSpaceOnUse" x="65" y="128" width="39" height="35">
<path d="M95.0898 141.864C93.7944 140.741 92.1289 139.126 90.327 138.24C89.9538 138.056 89.9738 138.765 89.5896 138.591C88.2052 137.966 86.5054 136.633 85.0896 136.137C84.75 136.018 84.5313 136.324 84.1961 136.212C82.9331 135.792 81.2096 134.817 80.0895 134.501C79.647 134.376 79.4958 134.609 79.0895 134.501C78.0172 134.213 76.8096 133.859 76.0895 133.682C75.311 133.492 75.6081 134.124 75.4171 134.062C74.3464 133.711 72.862 132.515 72.0894 132.157C71.7579 132.003 71.3841 132.203 71.0894 132.046C69.4731 131.183 68.5042 130.314 67.0318 129.251C66.1462 128.612 64.9822 129.196 65.0489 130.286C65.1009 131.136 65.2146 132.067 65.3846 133.056C65.4653 133.526 65.2792 133.569 65.3846 134.062C65.8088 136.043 66.7082 138.633 67.4853 140.785C67.6773 141.316 67.3788 141.335 67.5894 141.864C68.1876 143.368 69.3587 145.365 70.0894 146.773C70.9196 148.373 71.8324 149.863 72.81 151.238C73.1171 151.671 72.7701 152.091 73.0894 152.501C74.1454 153.854 75.9257 155.08 77.0895 156.174C77.4555 156.518 77.2154 157.092 77.5895 157.41C79.5633 159.085 81.999 159.78 84.0895 160.682C84.7154 160.952 84.4639 161.303 85.0896 161.501C91.4831 163.515 98.8727 161.93 102.392 155.375C104.658 150.211 100.458 145.99 96.5898 142.682C95.853 142.052 95.8419 142.516 95.0898 141.864Z" fill="url(#paint28_linear_4_98995)"/>
</mask>
<g mask="url(#mask5_4_98995)">
<g style="mix-blend-mode:overlay" opacity="0.32" filter="url(#filter17_f_4_98995)">
<path d="M102.589 157.207C101.663 156.292 100.829 155.471 100.039 154.728M65.0885 127.955C68.5529 131.626 70.2693 135.202 72.7573 138.319M79.3601 144.348C79.1903 142.05 78.4411 135.755 75.5886 133.682M79.3601 144.348C80.2849 144.903 81.2959 145.414 82.4163 145.874M79.3601 144.348C77.0394 142.955 75.2611 141.28 73.6581 139.41M82.4163 145.874C80.7184 147.386 75.2852 148.51 67.1353 140.91M82.4163 145.874C82.7462 146.009 83.0855 146.14 83.435 146.267M72.7573 138.319C73.0905 137.167 72.8111 133.428 71.5886 132.046M72.7573 138.319C73.0529 138.689 73.3523 139.053 73.6581 139.41M88.5286 147.863C85.9944 150.137 79.2923 154.41 72.7573 151.682M88.5286 147.863C88.0429 147.701 87.5344 147.538 87.0005 147.374M88.5286 147.863C90.5616 148.543 92.1953 149.215 93.6223 149.958M94.641 150.521C93.1129 153.4 83.201 157.372 77.0886 156.591M94.641 150.521C94.312 150.328 93.9734 150.141 93.6223 149.958M94.641 150.521C96.247 151.461 97.6232 152.531 99.1035 153.864M87.0005 147.374C86.4716 147.211 85.9178 147.047 85.3364 146.881C84.6706 146.69 84.0378 146.485 83.435 146.267M87.0005 147.374C87.5099 145.219 87.6636 138.773 83.5887 135.319M83.435 146.267C83.0954 143.329 81.0336 135.064 78.5887 133.682M93.6223 149.958C93.4525 147.23 91.9412 139.846 89.0887 137.773M99.1035 153.864C97.7858 155.591 90.516 161.501 83.5887 161.501M99.1035 153.864C99.4101 154.14 99.7211 154.428 100.039 154.728M100.039 154.728C100.108 152.425 99.0712 145.882 94.5888 141.046M73.6581 139.41C72.3016 140.228 68.6886 140.064 65.0885 132.864" stroke="url(#paint29_linear_4_98995)" stroke-width="0.125"/>
</g>
<g style="mix-blend-mode:overlay" opacity="0.04" filter="url(#filter18_f_4_98995)">
<path d="M102.589 157.207C101.663 156.292 100.829 155.471 100.039 154.728C99.7211 154.428 99.4101 154.14 99.1035 153.864C97.6232 152.531 96.247 151.461 94.641 150.521C94.312 150.328 93.9734 150.141 93.6223 149.958C92.1953 149.215 90.5616 148.543 88.5286 147.863C88.0429 147.701 87.5344 147.538 87.0005 147.374C86.4716 147.211 85.9178 147.047 85.3364 146.881C84.6706 146.69 84.0378 146.485 83.435 146.267C83.0855 146.14 82.7462 146.009 82.4163 145.874C81.2959 145.414 80.2849 144.903 79.3601 144.348C77.0394 142.955 75.2611 141.28 73.6581 139.41C73.3523 139.053 73.0529 138.689 72.7573 138.319C70.2693 135.202 68.5529 132.626 65.0885 128.955" stroke="url(#paint30_linear_4_98995)" stroke-width="0.250001"/>
</g>
</g>
<g filter="url(#filter19_ii_4_98995)">
<path d="M111.01 333.961C112.693 333.636 114.943 333.071 116.947 333.204C117.362 333.232 116.99 333.835 117.41 333.877C118.921 334.028 121.06 333.723 122.534 334.001C122.888 334.068 122.924 334.443 123.27 334.514C124.574 334.781 126.554 334.798 127.682 335.084C128.128 335.197 128.142 335.475 128.548 335.584C129.621 335.871 130.844 336.168 131.556 336.376C132.325 336.6 131.752 336.999 131.948 337.04C133.051 337.272 134.934 336.979 135.783 337.054C136.147 337.087 136.37 337.448 136.704 337.459C138.535 337.519 139.809 337.251 141.615 337.067C142.702 336.956 143.418 338.044 142.815 338.955C142.345 339.665 141.781 340.415 141.139 341.186C140.835 341.552 140.974 341.682 140.637 342.056C139.278 343.561 137.205 345.353 135.456 346.829C135.024 347.193 135.273 347.358 134.826 347.711C133.556 348.715 131.543 349.859 130.206 350.713C128.688 351.683 127.152 352.517 125.618 353.219C125.136 353.44 125.226 353.978 124.745 354.173C123.154 354.816 120.998 354.989 119.444 355.354C118.955 355.469 118.876 356.086 118.393 356.174C115.846 356.638 113.389 356.022 111.127 355.758C110.45 355.679 110.493 356.109 109.852 355.967C103.308 354.515 97.7009 349.447 97.9311 342.011C98.5501 336.406 104.298 334.85 109.302 333.92C110.255 333.743 110.033 334.15 111.01 333.961Z" fill="url(#paint31_radial_4_98995)"/>
<path d="M111.01 333.961C112.693 333.636 114.943 333.071 116.947 333.204C117.362 333.232 116.99 333.835 117.41 333.877C118.921 334.028 121.06 333.723 122.534 334.001C122.888 334.068 122.924 334.443 123.27 334.514C124.574 334.781 126.554 334.798 127.682 335.084C128.128 335.197 128.142 335.475 128.548 335.584C129.621 335.871 130.844 336.168 131.556 336.376C132.325 336.6 131.752 336.999 131.948 337.04C133.051 337.272 134.934 336.979 135.783 337.054C136.147 337.087 136.37 337.448 136.704 337.459C138.535 337.519 139.809 337.251 141.615 337.067C142.702 336.956 143.418 338.044 142.815 338.955C142.345 339.665 141.781 340.415 141.139 341.186C140.835 341.552 140.974 341.682 140.637 342.056C139.278 343.561 137.205 345.353 135.456 346.829C135.024 347.193 135.273 347.358 134.826 347.711C133.556 348.715 131.543 349.859 130.206 350.713C128.688 351.683 127.152 352.517 125.618 353.219C125.136 353.44 125.226 353.978 124.745 354.173C123.154 354.816 120.998 354.989 119.444 355.354C118.955 355.469 118.876 356.086 118.393 356.174C115.846 356.638 113.389 356.022 111.127 355.758C110.45 355.679 110.493 356.109 109.852 355.967C103.308 354.515 97.7009 349.447 97.9311 342.011C98.5501 336.406 104.298 334.85 109.302 333.92C110.255 333.743 110.033 334.15 111.01 333.961Z" fill="url(#paint32_linear_4_98995)" fill-opacity="0.48" style="mix-blend-mode:soft-light"/>
</g>
<mask id="mask6_4_98995" style="mask-type:alpha" maskUnits="userSpaceOnUse" x="97" y="333" width="47" height="24">
<path d="M111.01 333.962C112.693 333.637 114.943 333.071 116.947 333.204C117.362 333.232 116.99 333.836 117.41 333.878C118.921 334.028 121.06 333.723 122.534 334.002C122.888 334.069 122.924 334.443 123.27 334.514C124.574 334.781 126.554 334.799 127.682 335.085C128.128 335.198 128.142 335.476 128.548 335.585C129.621 335.872 130.844 336.169 131.556 336.376C132.325 336.6 131.752 336.999 131.948 337.041C133.051 337.273 134.934 336.979 135.783 337.055C136.147 337.087 136.37 337.448 136.704 337.459C138.535 337.52 139.809 337.252 141.615 337.067C142.702 336.956 143.418 338.045 142.815 338.955C142.345 339.665 141.781 340.415 141.139 341.186C140.835 341.552 140.974 341.683 140.637 342.057C139.278 343.561 137.205 345.354 135.456 346.829C135.024 347.193 135.273 347.359 134.826 347.712C133.556 348.715 131.543 349.859 130.206 350.713C128.688 351.683 127.152 352.518 125.618 353.22C125.136 353.441 125.226 353.979 124.745 354.173C123.154 354.817 120.998 354.989 119.444 355.355C118.955 355.47 118.876 356.087 118.393 356.175C115.846 356.639 113.389 356.023 111.127 355.759C110.45 355.68 110.493 356.11 109.852 355.967C103.308 354.515 97.7009 349.448 97.9311 342.011C98.5501 336.406 104.298 334.85 109.302 333.92C110.255 333.743 110.033 334.15 111.01 333.962Z" fill="url(#paint33_linear_4_98995)"/>
</mask>
<g mask="url(#mask6_4_98995)">
<g style="mix-blend-mode:overlay" opacity="0.32" filter="url(#filter20_f_4_98995)">
<path d="M96.8443 343.499C98.1035 343.169 99.2365 342.876 100.292 342.627M143.946 336.917C139.111 338.364 135.836 340.602 132.123 342.057M123.39 343.978C124.686 342.073 128.483 336.995 131.989 336.627M123.39 343.978C122.312 343.996 121.181 343.933 119.981 343.771M123.39 343.978C126.097 343.932 128.474 343.37 130.798 342.552M119.981 343.771C120.695 345.929 124.839 349.619 135.697 347.112M119.981 343.771C119.628 343.723 119.268 343.667 118.902 343.602M132.123 342.057C132.41 340.894 134.522 337.795 136.272 337.209M132.123 342.057C131.682 342.23 131.241 342.396 130.798 342.552M113.693 342.437C114.751 345.673 118.418 352.726 125.441 353.631M113.693 342.437C114.195 342.54 114.716 342.653 115.261 342.778M113.693 342.437C111.592 342.009 109.841 341.775 108.234 341.705M107.07 341.683C106.954 344.94 113.552 353.336 119.236 355.716M107.07 341.683C107.452 341.681 107.838 341.688 108.234 341.705M107.07 341.683C105.21 341.694 103.483 341.932 101.534 342.347M115.261 342.778C115.8 342.901 116.362 343.036 116.949 343.183C117.621 343.35 118.271 343.489 118.902 343.602M115.261 342.778C115.897 340.657 118.987 334.998 124.243 334.044M118.902 343.602C120.665 341.228 126.583 335.101 129.391 335.127M108.234 341.705C109.745 339.427 114.746 333.788 118.253 333.419M101.534 342.347C101.812 344.502 105.153 353.254 111.152 356.718M101.534 342.347C101.131 342.433 100.717 342.526 100.292 342.627M100.292 342.627C101.384 340.598 105.553 335.451 111.853 333.504M130.798 342.552C131.563 343.939 134.774 345.603 141.492 341.168" stroke="url(#paint34_linear_4_98995)" stroke-width="0.125"/>
</g>
<g style="mix-blend-mode:overlay" opacity="0.04" filter="url(#filter21_f_4_98995)">
<path d="M96.8443 343.5C98.1035 343.17 99.2365 342.877 100.292 342.627C100.717 342.527 101.131 342.433 101.534 342.347C103.483 341.932 105.21 341.694 107.07 341.683C107.452 341.681 107.838 341.688 108.234 341.705C109.841 341.775 111.592 342.01 113.693 342.438C114.195 342.54 114.716 342.653 115.261 342.778C115.8 342.902 116.362 343.036 116.949 343.183C117.621 343.351 118.271 343.49 118.902 343.602C119.268 343.667 119.628 343.723 119.981 343.771C121.181 343.933 122.312 343.996 123.39 343.978C126.097 343.932 128.474 343.37 130.798 342.552C131.241 342.396 131.682 342.231 132.123 342.058C135.836 340.602 138.611 339.23 143.446 337.783" stroke="url(#paint35_linear_4_98995)" stroke-width="0.250001"/>
</g>
</g>
<g filter="url(#filter22_ii_4_98995)">
<path d="M103.82 240.229C105.24 241.189 107.231 242.38 108.554 243.891C108.828 244.204 108.138 244.368 108.405 244.695C109.367 245.87 111.095 247.167 111.941 248.406C112.143 248.703 111.904 248.994 112.099 249.289C112.832 250.4 114.22 251.812 114.815 252.812C115.051 253.207 114.864 253.414 115.074 253.778C115.629 254.739 116.284 255.814 116.641 256.464C117.026 257.167 116.339 257.043 116.449 257.212C117.064 258.155 118.604 259.279 119.15 259.933C119.384 260.213 119.287 260.626 119.516 260.87C120.768 262.208 121.857 262.919 123.265 264.066C124.112 264.756 123.849 266.032 122.779 266.25C121.944 266.419 121.015 266.55 120.016 266.642C119.542 266.686 119.548 266.877 119.045 266.902C117.021 267.006 114.287 266.807 112.007 266.613C111.444 266.565 111.504 266.859 110.938 266.792C109.331 266.604 107.098 265.989 105.549 265.648C103.789 265.26 102.113 264.764 100.532 264.176C100.035 263.991 99.7183 264.435 99.2404 264.232C97.6602 263.563 96.0144 262.161 94.6564 261.32C94.2294 261.055 93.7374 261.435 93.3338 261.156C91.2044 259.683 89.9026 257.511 88.4903 255.725C88.0675 255.19 87.7935 255.524 87.4412 254.971C83.8406 249.316 83.4588 241.768 88.8802 236.673C93.2811 233.147 98.4457 236.111 102.642 238.992C103.441 239.54 102.996 239.671 103.82 240.229Z" fill="url(#paint36_radial_4_98995)"/>
<path d="M103.82 240.229C105.24 241.189 107.231 242.38 108.554 243.891C108.828 244.204 108.138 244.368 108.405 244.695C109.367 245.87 111.095 247.167 111.941 248.406C112.143 248.703 111.904 248.994 112.099 249.289C112.832 250.4 114.22 251.812 114.815 252.812C115.051 253.207 114.864 253.414 115.074 253.778C115.629 254.739 116.284 255.814 116.641 256.464C117.026 257.167 116.339 257.043 116.449 257.212C117.064 258.155 118.604 259.279 119.15 259.933C119.384 260.213 119.287 260.626 119.516 260.87C120.768 262.208 121.857 262.919 123.265 264.066C124.112 264.756 123.849 266.032 122.779 266.25C121.944 266.419 121.015 266.55 120.016 266.642C119.542 266.686 119.548 266.877 119.045 266.902C117.021 267.006 114.287 266.807 112.007 266.613C111.444 266.565 111.504 266.859 110.938 266.792C109.331 266.604 107.098 265.989 105.549 265.648C103.789 265.26 102.113 264.764 100.532 264.176C100.035 263.991 99.7183 264.435 99.2404 264.232C97.6602 263.563 96.0144 262.161 94.6564 261.32C94.2294 261.055 93.7374 261.435 93.3338 261.156C91.2044 259.683 89.9026 257.511 88.4903 255.725C88.0675 255.19 87.7935 255.524 87.4412 254.971C83.8406 249.316 83.4588 241.768 88.8802 236.673C93.2811 233.147 98.4457 236.111 102.642 238.992C103.441 239.54 102.996 239.671 103.82 240.229Z" fill="url(#paint37_linear_4_98995)" fill-opacity="0.48" style="mix-blend-mode:soft-light"/>
</g>
<mask id="mask7_4_98995" style="mask-type:alpha" maskUnits="userSpaceOnUse" x="84" y="235" width="40" height="32">
<path d="M103.82 240.229C105.24 241.189 107.231 242.38 108.553 243.891C108.827 244.204 108.137 244.368 108.404 244.695C109.367 245.87 111.095 247.167 111.94 248.406C112.143 248.703 111.904 248.994 112.098 249.289C112.831 250.4 114.219 251.812 114.815 252.812C115.05 253.207 114.863 253.414 115.074 253.778C115.629 254.739 116.284 255.814 116.64 256.464C117.026 257.167 116.338 257.043 116.448 257.212C117.064 258.155 118.603 259.279 119.149 259.933C119.384 260.213 119.287 260.626 119.515 260.87C120.767 262.208 121.857 262.919 123.265 264.066C124.112 264.756 123.849 266.032 122.778 266.25C121.944 266.419 121.015 266.55 120.016 266.642C119.542 266.686 119.548 266.877 119.045 266.902C117.021 267.006 114.287 266.807 112.007 266.613C111.444 266.565 111.503 266.859 110.937 266.792C109.33 266.604 107.097 265.989 105.548 265.648C103.789 265.26 102.113 264.764 100.531 264.176C100.034 263.991 99.7178 264.435 99.2399 264.232C97.6597 263.563 96.0139 262.161 94.656 261.32C94.2289 261.055 93.7369 261.435 93.3334 261.156C91.2039 259.683 89.9021 257.511 88.4898 255.725C88.067 255.19 87.793 255.524 87.4407 254.971C83.8401 249.316 83.4583 241.768 88.8797 236.673C93.2806 233.147 98.4452 236.111 102.641 238.992C103.44 239.54 102.995 239.671 103.82 240.229Z" fill="url(#paint38_linear_4_98995)"/>
</mask>
<g mask="url(#mask7_4_98995)">
<g style="mix-blend-mode:overlay" opacity="0.32" filter="url(#filter23_f_4_98995)">
<path d="M87.0588 236.956C88.1825 237.613 89.191 238.207 90.1133 238.777M125.02 265.608C120.577 263.212 116.679 262.479 113.024 260.883M105.492 256.065C107.755 255.635 114.03 254.729 116.77 256.948M105.492 256.065C104.716 255.316 103.961 254.471 103.227 253.508M105.492 256.065C107.438 257.946 109.516 259.231 111.738 260.295M103.227 253.508C102.206 255.54 102.527 261.079 111.977 266.984M103.227 253.508C103.011 253.225 102.796 252.931 102.584 252.626M113.024 260.883C114.05 260.263 117.735 259.565 119.386 260.388M113.024 260.883C112.59 260.693 112.161 260.498 111.738 260.295M99.7234 248.119C98.1833 251.155 95.7896 258.735 100.116 264.341M99.7234 248.119C100.006 248.546 100.295 248.995 100.591 249.468M99.7234 248.119C98.5409 246.331 97.4684 244.927 96.3813 243.741M95.5742 242.903C93.1888 245.124 91.9176 255.726 94.2533 261.428M95.5742 242.903C95.8453 243.171 96.1138 243.449 96.3813 243.741M95.5742 242.903C94.2505 241.595 92.8611 240.542 91.1898 239.458M100.591 249.468C100.885 249.937 101.187 250.43 101.499 250.948C101.855 251.542 102.217 252.1 102.584 252.626M100.591 249.468C102.541 248.419 108.727 246.602 113.119 249.644M102.584 252.626C105.509 252.194 114.026 252.046 115.994 254.05M96.3813 243.741C99.0606 243.199 106.584 242.748 109.324 244.967M91.1898 239.458C89.8624 241.177 86.0362 249.729 87.8291 256.42M91.1898 239.458C90.8437 239.233 90.4855 239.007 90.1133 238.777M90.1133 238.777C92.3202 238.115 98.908 237.423 104.74 240.501M111.738 260.295C111.298 261.817 112.392 265.264 120.278 266.878" stroke="url(#paint39_linear_4_98995)" stroke-width="0.125"/>
</g>
<g style="mix-blend-mode:overlay" opacity="0.04" filter="url(#filter24_f_4_98995)">
<path d="M87.0589 236.956C88.1826 237.613 89.1911 238.207 90.1134 238.777C90.4856 239.007 90.8438 239.233 91.1899 239.458C92.8612 240.542 94.2506 241.595 95.5743 242.903C95.8455 243.171 96.1139 243.449 96.3814 243.741C97.4686 244.927 98.541 246.331 99.7235 248.119C100.006 248.546 100.295 248.995 100.592 249.468C100.886 249.937 101.187 250.43 101.499 250.948C101.855 251.542 102.217 252.1 102.584 252.626C102.797 252.931 103.011 253.225 103.227 253.508C103.961 254.471 104.716 255.316 105.492 256.065C107.438 257.946 109.516 259.23 111.738 260.295C112.161 260.498 112.59 260.693 113.025 260.883C116.679 262.479 119.611 263.47 124.054 265.867" stroke="url(#paint40_linear_4_98995)" stroke-width="0.250001"/>
</g>
</g>
<g filter="url(#filter25_ii_4_98995)">
<path d="M104.91 -3.13583C106.206 -4.25884 107.871 -5.87369 109.673 -6.76006C110.046 -6.94365 110.026 -6.23501 110.41 -6.40856C111.795 -7.03394 113.495 -8.36709 114.91 -8.8631C115.25 -8.98206 115.469 -8.67593 115.804 -8.78751C117.067 -9.2079 118.79 -10.1831 119.91 -10.4995C120.353 -10.6245 120.504 -10.3906 120.911 -10.4995C121.983 -10.7869 123.19 -11.1413 123.911 -11.3176C124.689 -11.5082 124.392 -10.876 124.583 -10.9385C125.654 -11.2889 127.138 -12.4849 127.911 -12.8434C128.242 -12.9971 128.616 -12.7966 128.911 -12.954C130.527 -13.8173 131.496 -14.6857 132.968 -15.7489C133.854 -16.3884 135.018 -15.8039 134.951 -14.7136C134.899 -13.8638 134.785 -12.9326 134.615 -11.9438C134.535 -11.4745 134.721 -11.4312 134.615 -10.9385C134.191 -8.95668 133.292 -6.36749 132.515 -4.21529C132.323 -3.68372 132.621 -3.66514 132.411 -3.13583C131.812 -1.63212 130.641 0.365484 129.911 1.77326C129.08 3.37274 128.168 4.86313 127.19 6.23848C126.883 6.67058 127.23 7.09133 126.911 7.50053C125.855 8.85353 124.074 10.0804 122.911 11.1744C122.545 11.5184 122.785 12.0921 122.411 12.4096C120.437 14.0853 118.001 14.7804 115.91 15.6824C115.285 15.9524 115.536 16.3034 114.91 16.5005C108.517 18.5149 101.127 16.9302 97.6084 10.3747C95.3419 5.21123 99.5417 0.989752 103.41 -2.31765C104.147 -2.94757 104.158 -2.48376 104.91 -3.13583Z" fill="url(#paint41_radial_4_98995)"/>
<path d="M104.91 -3.13583C106.206 -4.25884 107.871 -5.87369 109.673 -6.76006C110.046 -6.94365 110.026 -6.23501 110.41 -6.40856C111.795 -7.03394 113.495 -8.36709 114.91 -8.8631C115.25 -8.98206 115.469 -8.67593 115.804 -8.78751C117.067 -9.2079 118.79 -10.1831 119.91 -10.4995C120.353 -10.6245 120.504 -10.3906 120.911 -10.4995C121.983 -10.7869 123.19 -11.1413 123.911 -11.3176C124.689 -11.5082 124.392 -10.876 124.583 -10.9385C125.654 -11.2889 127.138 -12.4849 127.911 -12.8434C128.242 -12.9971 128.616 -12.7966 128.911 -12.954C130.527 -13.8173 131.496 -14.6857 132.968 -15.7489C133.854 -16.3884 135.018 -15.8039 134.951 -14.7136C134.899 -13.8638 134.785 -12.9326 134.615 -11.9438C134.535 -11.4745 134.721 -11.4312 134.615 -10.9385C134.191 -8.95668 133.292 -6.36749 132.515 -4.21529C132.323 -3.68372 132.621 -3.66514 132.411 -3.13583C131.812 -1.63212 130.641 0.365484 129.911 1.77326C129.08 3.37274 128.168 4.86313 127.19 6.23848C126.883 6.67058 127.23 7.09133 126.911 7.50053C125.855 8.85353 124.074 10.0804 122.911 11.1744C122.545 11.5184 122.785 12.0921 122.411 12.4096C120.437 14.0853 118.001 14.7804 115.91 15.6824C115.285 15.9524 115.536 16.3034 114.91 16.5005C108.517 18.5149 101.127 16.9302 97.6084 10.3747C95.3419 5.21123 99.5417 0.989752 103.41 -2.31765C104.147 -2.94757 104.158 -2.48376 104.91 -3.13583Z" fill="url(#paint42_linear_4_98995)" fill-opacity="0.48" style="mix-blend-mode:soft-light"/>
</g>
<mask id="mask8_4_98995" style="mask-type:alpha" maskUnits="userSpaceOnUse" x="96" y="-17" width="39" height="35">
<path d="M104.91 -3.13583C106.206 -4.25884 107.871 -5.87369 109.673 -6.76006C110.046 -6.94365 110.026 -6.23501 110.41 -6.40856C111.795 -7.03394 113.495 -8.36709 114.91 -8.8631C115.25 -8.98206 115.469 -8.67593 115.804 -8.78751C117.067 -9.2079 118.79 -10.1831 119.91 -10.4995C120.353 -10.6245 120.504 -10.3906 120.911 -10.4995C121.983 -10.7869 123.19 -11.1413 123.911 -11.3176C124.689 -11.5082 124.392 -10.876 124.583 -10.9385C125.654 -11.2889 127.138 -12.4849 127.911 -12.8434C128.242 -12.9971 128.616 -12.7966 128.911 -12.954C130.527 -13.8173 131.496 -14.6857 132.968 -15.7489C133.854 -16.3884 135.018 -15.8039 134.951 -14.7136C134.899 -13.8638 134.785 -12.9326 134.615 -11.9438C134.535 -11.4745 134.721 -11.4312 134.615 -10.9385C134.191 -8.95668 133.292 -6.36749 132.515 -4.21529C132.323 -3.68372 132.621 -3.66514 132.411 -3.13583C131.812 -1.63212 130.641 0.365484 129.911 1.77326C129.08 3.37274 128.168 4.86313 127.19 6.23848C126.883 6.67058 127.23 7.09133 126.911 7.50053C125.855 8.85353 124.074 10.0804 122.911 11.1744C122.545 11.5184 122.785 12.0921 122.411 12.4096C120.437 14.0853 118.001 14.7804 115.91 15.6824C115.285 15.9524 115.536 16.3034 114.91 16.5005C108.517 18.5149 101.127 16.9302 97.6084 10.3747C95.3419 5.21123 99.5417 0.989752 103.41 -2.31765C104.147 -2.94757 104.158 -2.48376 104.91 -3.13583Z" fill="url(#paint43_linear_4_98995)"/>
</mask>
<g mask="url(#mask8_4_98995)">
<g style="mix-blend-mode:overlay" opacity="0.32" filter="url(#filter26_f_4_98995)">
<path d="M97.4111 12.207C98.3366 11.2916 99.1714 10.4713 99.9605 9.72781M134.911 -17.0449C131.447 -13.3738 129.731 -9.7982 127.243 -6.68128M120.64 -0.651855C120.81 -2.94954 121.559 -9.24492 124.411 -11.3176M120.64 -0.651855C119.715 -0.0966774 118.704 0.41366 117.584 0.873604M120.64 -0.651855C122.961 -2.04493 124.739 -3.72034 126.342 -5.59038M117.584 0.873604C119.282 2.38561 124.715 3.50963 132.865 -4.09038M117.584 0.873604C117.254 1.00904 116.914 1.1401 116.565 1.26666M127.243 -6.68128C126.909 -7.8328 127.189 -11.5722 128.411 -12.954M127.243 -6.68128C126.947 -6.31097 126.648 -5.94713 126.342 -5.59038M111.471 2.86309C114.006 5.13654 120.708 9.41049 127.243 6.68235M111.471 2.86309C111.957 2.70076 112.466 2.53803 112.999 2.37384M111.471 2.86309C109.438 3.54256 107.805 4.21508 106.378 4.95824M105.359 5.52082C106.887 8.3998 116.799 12.3718 122.911 11.5914M105.359 5.52082C105.688 5.32825 106.027 5.14111 106.378 4.95824M105.359 5.52082C103.753 6.46093 102.377 7.53054 100.896 8.86417M112.999 2.37384C113.528 2.21119 114.082 2.04711 114.664 1.88057C115.329 1.68984 115.962 1.48496 116.565 1.26666M112.999 2.37384C112.49 0.219103 112.336 -6.22674 116.411 -9.68129M116.565 1.26666C116.905 -1.67054 118.966 -9.93583 121.411 -11.3176M106.378 4.95824C106.548 2.22992 108.059 -5.15401 110.911 -7.22674M100.896 8.86417C102.214 10.5914 109.484 16.5005 116.411 16.5005M100.896 8.86417C100.59 9.14033 100.279 9.42781 99.9605 9.72781M99.9605 9.72781C99.8923 7.42478 100.929 0.882352 105.411 -3.95401M126.342 -5.59038C127.698 -4.77219 131.311 -4.93583 134.911 -12.1358" stroke="url(#paint44_linear_4_98995)" stroke-width="0.125"/>
</g>
<g style="mix-blend-mode:overlay" opacity="0.04" filter="url(#filter27_f_4_98995)">
<path d="M97.4111 12.207C98.3366 11.2916 99.1714 10.4713 99.9605 9.7278C100.279 9.42781 100.59 9.14033 100.896 8.86417C102.377 7.53054 103.753 6.46093 105.359 5.52082C105.688 5.32825 106.027 5.14111 106.378 4.95824C107.805 4.21507 109.438 3.54256 111.471 2.86309C111.957 2.70076 112.466 2.53803 112.999 2.37384C113.528 2.21119 114.082 2.04711 114.664 1.88057C115.329 1.68984 115.962 1.48496 116.565 1.26665C116.914 1.1401 117.254 1.00904 117.584 0.873602C118.704 0.413658 119.715 -0.0966794 120.64 -0.651857C122.961 -2.04493 124.739 -3.72034 126.342 -5.59038C126.648 -5.94713 126.947 -6.31097 127.243 -6.68128C129.731 -9.7982 131.447 -12.3738 134.911 -16.0449" stroke="url(#paint45_linear_4_98995)" stroke-width="0.250001"/>
</g>
</g>
<defs>
<filter id="filter0_i_4_98995" x="71.7266" y="-150" width="78.2734" height="515.24" filterUnits="userSpaceOnUse" color-interpolation-filters="sRGB">
<feFlood flood-opacity="0" result="BackgroundImageFix"/>
<feBlend mode="normal" in="SourceGraphic" in2="BackgroundImageFix" result="shape"/>
<feColorMatrix in="SourceAlpha" type="matrix" values="0 0 0 0 0 0 0 0 0 0 0 0 0 0 0 0 0 0 127 0" result="hardAlpha"/>
<feOffset dy="2"/>
<feGaussianBlur stdDeviation="1"/>
<feComposite in2="hardAlpha" operator="arithmetic" k2="-1" k3="1"/>
<feColorMatrix type="matrix" values="0 0 0 0 1 0 0 0 0 1 0 0 0 0 1 0 0 0 0.35 0"/>
<feBlend mode="normal" in2="shape" result="effect1_innerShadow_4_98995"/>
</filter>
<filter id="filter1_ii_4_98995" x="-0.907715" y="131.972" width="80.9683" height="72.6646" filterUnits="userSpaceOnUse" color-interpolation-filters="sRGB">
<feFlood flood-opacity="0" result="BackgroundImageFix"/>
<feBlend mode="normal" in="SourceGraphic" in2="BackgroundImageFix" result="shape"/>
<feColorMatrix in="SourceAlpha" type="matrix" values="0 0 0 0 0 0 0 0 0 0 0 0 0 0 0 0 0 0 127 0" result="hardAlpha"/>
<feOffset dx="-1" dy="2"/>
<feGaussianBlur stdDeviation="1.5"/>
<feComposite in2="hardAlpha" operator="arithmetic" k2="-1" k3="1"/>
<feColorMatrix type="matrix" values="0 0 0 0 1 0 0 0 0 1 0 0 0 0 1 0 0 0 0.4 0"/>
<feBlend mode="normal" in2="shape" result="effect1_innerShadow_4_98995"/>
<feColorMatrix in="SourceAlpha" type="matrix" values="0 0 0 0 0 0 0 0 0 0 0 0 0 0 0 0 0 0 127 0" result="hardAlpha"/>
<feOffset dx="4" dy="-4"/>
<feGaussianBlur stdDeviation="4"/>
<feComposite in2="hardAlpha" operator="arithmetic" k2="-1" k3="1"/>
<feColorMatrix type="matrix" values="0 0 0 0 0 0 0 0 0 0 0 0 0 0 0 0 0 0 0.16 0"/>
<feBlend mode="overlay" in2="effect1_innerShadow_4_98995" result="effect2_innerShadow_4_98995"/>
</filter>
<filter id="filter2_f_4_98995" x="-1.43457" y="132.324" width="78.2002" height="70.3018" filterUnits="userSpaceOnUse" color-interpolation-filters="sRGB">
<feFlood flood-opacity="0" result="BackgroundImageFix"/>
<feBlend mode="normal" in="SourceGraphic" in2="BackgroundImageFix" result="shape"/>
<feGaussianBlur stdDeviation="0.75" result="effect1_foregroundBlur_4_98995"/>
</filter>
<filter id="filter3_f_4_98995" x="-0.504885" y="135.239" width="76.3584" height="57.8532" filterUnits="userSpaceOnUse" color-interpolation-filters="sRGB">
<feFlood flood-opacity="0" result="BackgroundImageFix"/>
<feBlend mode="normal" in="SourceGraphic" in2="BackgroundImageFix" result="shape"/>
<feGaussianBlur stdDeviation="0.250001" result="effect1_foregroundBlur_4_98995"/>
</filter>
<filter id="filter4_ii_4_98995" x="61.1382" y="19.4626" width="68.7295" height="84.005" filterUnits="userSpaceOnUse" color-interpolation-filters="sRGB">
<feFlood flood-opacity="0" result="BackgroundImageFix"/>
<feBlend mode="normal" in="SourceGraphic" in2="BackgroundImageFix" result="shape"/>
<feColorMatrix in="SourceAlpha" type="matrix" values="0 0 0 0 0 0 0 0 0 0 0 0 0 0 0 0 0 0 127 0" result="hardAlpha"/>
<feOffset dx="-1" dy="2"/>
<feGaussianBlur stdDeviation="1.5"/>
<feComposite in2="hardAlpha" operator="arithmetic" k2="-1" k3="1"/>
<feColorMatrix type="matrix" values="0 0 0 0 1 0 0 0 0 1 0 0 0 0 1 0 0 0 0.4 0"/>
<feBlend mode="normal" in2="shape" result="effect1_innerShadow_4_98995"/>
<feColorMatrix in="SourceAlpha" type="matrix" values="0 0 0 0 0 0 0 0 0 0 0 0 0 0 0 0 0 0 127 0" result="hardAlpha"/>
<feOffset dx="4" dy="-4"/>
<feGaussianBlur stdDeviation="4"/>
<feComposite in2="hardAlpha" operator="arithmetic" k2="-1" k3="1"/>
<feColorMatrix type="matrix" values="0 0 0 0 0 0 0 0 0 0 0 0 0 0 0 0 0 0 0.16 0"/>
<feBlend mode="overlay" in2="effect1_innerShadow_4_98995" result="effect2_innerShadow_4_98995"/>
</filter>
<filter id="filter5_f_4_98995" x="60.4263" y="19.3993" width="63.2686" height="79.0443" filterUnits="userSpaceOnUse" color-interpolation-filters="sRGB">
<feFlood flood-opacity="0" result="BackgroundImageFix"/>
<feBlend mode="normal" in="SourceGraphic" in2="BackgroundImageFix" result="shape"/>
<feGaussianBlur stdDeviation="0.75" result="effect1_foregroundBlur_4_98995"/>
</filter>
<filter id="filter6_f_4_98995" x="63.5459" y="22.2718" width="59.2568" height="75.2349" filterUnits="userSpaceOnUse" color-interpolation-filters="sRGB">
<feFlood flood-opacity="0" result="BackgroundImageFix"/>
<feBlend mode="normal" in="SourceGraphic" in2="BackgroundImageFix" result="shape"/>
<feGaussianBlur stdDeviation="0.250001" result="effect1_foregroundBlur_4_98995"/>
</filter>
<filter id="filter7_ii_4_98995" x="103.254" y="15.9934" width="71.416" height="39.2375" filterUnits="userSpaceOnUse" color-interpolation-filters="sRGB">
<feFlood flood-opacity="0" result="BackgroundImageFix"/>
<feBlend mode="normal" in="SourceGraphic" in2="BackgroundImageFix" result="shape"/>
<feColorMatrix in="SourceAlpha" type="matrix" values="0 0 0 0 0 0 0 0 0 0 0 0 0 0 0 0 0 0 127 0" result="hardAlpha"/>
<feOffset dx="-0.75" dy="1.5"/>
<feGaussianBlur stdDeviation="1.125"/>
<feComposite in2="hardAlpha" operator="arithmetic" k2="-1" k3="1"/>
<feColorMatrix type="matrix" values="0 0 0 0 1 0 0 0 0 1 0 0 0 0 1 0 0 0 0.4 0"/>
<feBlend mode="normal" in2="shape" result="effect1_innerShadow_4_98995"/>
<feColorMatrix in="SourceAlpha" type="matrix" values="0 0 0 0 0 0 0 0 0 0 0 0 0 0 0 0 0 0 127 0" result="hardAlpha"/>
<feOffset dx="3" dy="-3"/>
<feGaussianBlur stdDeviation="3"/>
<feComposite in2="hardAlpha" operator="arithmetic" k2="-1" k3="1"/>
<feColorMatrix type="matrix" values="0 0 0 0 0 0 0 0 0 0 0 0 0 0 0 0 0 0 0.16 0"/>
<feBlend mode="overlay" in2="effect1_innerShadow_4_98995" result="effect2_innerShadow_4_98995"/>
</filter>
<filter id="filter8_f_4_98995" x="101.236" y="18.1273" width="72.9541" height="37.3722" filterUnits="userSpaceOnUse" color-interpolation-filters="sRGB">
<feFlood flood-opacity="0" result="BackgroundImageFix"/>
<feBlend mode="normal" in="SourceGraphic" in2="BackgroundImageFix" result="shape"/>
<feGaussianBlur stdDeviation="0.5625" result="effect1_foregroundBlur_4_98995"/>
</filter>
<filter id="filter9_f_4_98995" x="101.962" y="25.3363" width="70.7544" height="10.4142" filterUnits="userSpaceOnUse" color-interpolation-filters="sRGB">
<feFlood flood-opacity="0" result="BackgroundImageFix"/>
<feBlend mode="normal" in="SourceGraphic" in2="BackgroundImageFix" result="shape"/>
<feGaussianBlur stdDeviation="0.187501" result="effect1_foregroundBlur_4_98995"/>
</filter>
<filter id="filter10_ii_4_98995" x="75.1353" y="189.777" width="71.416" height="39.2375" filterUnits="userSpaceOnUse" color-interpolation-filters="sRGB">
<feFlood flood-opacity="0" result="BackgroundImageFix"/>
<feBlend mode="normal" in="SourceGraphic" in2="BackgroundImageFix" result="shape"/>
<feColorMatrix in="SourceAlpha" type="matrix" values="0 0 0 0 0 0 0 0 0 0 0 0 0 0 0 0 0 0 127 0" result="hardAlpha"/>
<feOffset dx="-0.75" dy="1.5"/>
<feGaussianBlur stdDeviation="1.125"/>
<feComposite in2="hardAlpha" operator="arithmetic" k2="-1" k3="1"/>
<feColorMatrix type="matrix" values="0 0 0 0 1 0 0 0 0 1 0 0 0 0 1 0 0 0 0.4 0"/>
<feBlend mode="normal" in2="shape" result="effect1_innerShadow_4_98995"/>
<feColorMatrix in="SourceAlpha" type="matrix" values="0 0 0 0 0 0 0 0 0 0 0 0 0 0 0 0 0 0 127 0" result="hardAlpha"/>
<feOffset dx="3" dy="-3"/>
<feGaussianBlur stdDeviation="3"/>
<feComposite in2="hardAlpha" operator="arithmetic" k2="-1" k3="1"/>
<feColorMatrix type="matrix" values="0 0 0 0 0 0 0 0 0 0 0 0 0 0 0 0 0 0 0.16 0"/>
<feBlend mode="overlay" in2="effect1_innerShadow_4_98995" result="effect2_innerShadow_4_98995"/>
</filter>
<filter id="filter11_f_4_98995" x="73.1167" y="191.911" width="72.9541" height="37.3722" filterUnits="userSpaceOnUse" color-interpolation-filters="sRGB">
<feFlood flood-opacity="0" result="BackgroundImageFix"/>
<feBlend mode="normal" in="SourceGraphic" in2="BackgroundImageFix" result="shape"/>
<feGaussianBlur stdDeviation="0.5625" result="effect1_foregroundBlur_4_98995"/>
</filter>
<filter id="filter12_f_4_98995" x="73.8433" y="199.12" width="70.7544" height="10.4142" filterUnits="userSpaceOnUse" color-interpolation-filters="sRGB">
<feFlood flood-opacity="0" result="BackgroundImageFix"/>
<feBlend mode="normal" in="SourceGraphic" in2="BackgroundImageFix" result="shape"/>
<feGaussianBlur stdDeviation="0.187501" result="effect1_foregroundBlur_4_98995"/>
</filter>
<filter id="filter13_ii_4_98995" x="23.0103" y="294.355" width="71.4829" height="40.5027" filterUnits="userSpaceOnUse" color-interpolation-filters="sRGB">
<feFlood flood-opacity="0" result="BackgroundImageFix"/>
<feBlend mode="normal" in="SourceGraphic" in2="BackgroundImageFix" result="shape"/>
<feColorMatrix in="SourceAlpha" type="matrix" values="0 0 0 0 0 0 0 0 0 0 0 0 0 0 0 0 0 0 127 0" result="hardAlpha"/>
<feOffset dx="-0.75" dy="1.5"/>
<feGaussianBlur stdDeviation="1.125"/>
<feComposite in2="hardAlpha" operator="arithmetic" k2="-1" k3="1"/>
<feColorMatrix type="matrix" values="0 0 0 0 1 0 0 0 0 1 0 0 0 0 1 0 0 0 0.4 0"/>
<feBlend mode="normal" in2="shape" result="effect1_innerShadow_4_98995"/>
<feColorMatrix in="SourceAlpha" type="matrix" values="0 0 0 0 0 0 0 0 0 0 0 0 0 0 0 0 0 0 127 0" result="hardAlpha"/>
<feOffset dx="3" dy="-3"/>
<feGaussianBlur stdDeviation="3"/>
<feComposite in2="hardAlpha" operator="arithmetic" k2="-1" k3="1"/>
<feColorMatrix type="matrix" values="0 0 0 0 0 0 0 0 0 0 0 0 0 0 0 0 0 0 0.16 0"/>
<feBlend mode="overlay" in2="effect1_innerShadow_4_98995" result="effect2_innerShadow_4_98995"/>
</filter>
<filter id="filter14_f_4_98995" x="20.8506" y="296.749" width="73.0547" height="37.4679" filterUnits="userSpaceOnUse" color-interpolation-filters="sRGB">
<feFlood flood-opacity="0" result="BackgroundImageFix"/>
<feBlend mode="normal" in="SourceGraphic" in2="BackgroundImageFix" result="shape"/>
<feGaussianBlur stdDeviation="0.5625" result="effect1_foregroundBlur_4_98995"/>
</filter>
<filter id="filter15_f_4_98995" x="22.6587" y="306.061" width="70.4976" height="13.0697" filterUnits="userSpaceOnUse" color-interpolation-filters="sRGB">
<feFlood flood-opacity="0" result="BackgroundImageFix"/>
<feBlend mode="normal" in="SourceGraphic" in2="BackgroundImageFix" result="shape"/>
<feGaussianBlur stdDeviation="0.187501" result="effect1_foregroundBlur_4_98995"/>
</filter>
<filter id="filter16_ii_4_98995" x="64.5459" y="126.986" width="40.4844" height="36.3323" filterUnits="userSpaceOnUse" color-interpolation-filters="sRGB">
<feFlood flood-opacity="0" result="BackgroundImageFix"/>
<feBlend mode="normal" in="SourceGraphic" in2="BackgroundImageFix" result="shape"/>
<feColorMatrix in="SourceAlpha" type="matrix" values="0 0 0 0 0 0 0 0 0 0 0 0 0 0 0 0 0 0 127 0" result="hardAlpha"/>
<feOffset dx="-0.5" dy="1"/>
<feGaussianBlur stdDeviation="0.75"/>
<feComposite in2="hardAlpha" operator="arithmetic" k2="-1" k3="1"/>
<feColorMatrix type="matrix" values="0 0 0 0 1 0 0 0 0 1 0 0 0 0 1 0 0 0 0.4 0"/>
<feBlend mode="normal" in2="shape" result="effect1_innerShadow_4_98995"/>
<feColorMatrix in="SourceAlpha" type="matrix" values="0 0 0 0 0 0 0 0 0 0 0 0 0 0 0 0 0 0 127 0" result="hardAlpha"/>
<feOffset dx="2" dy="-2"/>
<feGaussianBlur stdDeviation="2"/>
<feComposite in2="hardAlpha" operator="arithmetic" k2="-1" k3="1"/>
<feColorMatrix type="matrix" values="0 0 0 0 0 0 0 0 0 0 0 0 0 0 0 0 0 0 0.16 0"/>
<feBlend mode="overlay" in2="effect1_innerShadow_4_98995" result="effect2_innerShadow_4_98995"/>
</filter>
<filter id="filter17_f_4_98995" x="64.2827" y="127.162" width="39.1001" height="35.1508" filterUnits="userSpaceOnUse" color-interpolation-filters="sRGB">
<feFlood flood-opacity="0" result="BackgroundImageFix"/>
<feBlend mode="normal" in="SourceGraphic" in2="BackgroundImageFix" result="shape"/>
<feGaussianBlur stdDeviation="0.375" result="effect1_foregroundBlur_4_98995"/>
</filter>
<filter id="filter18_f_4_98995" x="64.7476" y="128.619" width="38.1792" height="28.9265" filterUnits="userSpaceOnUse" color-interpolation-filters="sRGB">
<feFlood flood-opacity="0" result="BackgroundImageFix"/>
<feBlend mode="normal" in="SourceGraphic" in2="BackgroundImageFix" result="shape"/>
<feGaussianBlur stdDeviation="0.125001" result="effect1_foregroundBlur_4_98995"/>
</filter>
<filter id="filter19_ii_4_98995" x="97.4243" y="331.184" width="47.6104" height="26.1583" filterUnits="userSpaceOnUse" color-interpolation-filters="sRGB">
<feFlood flood-opacity="0" result="BackgroundImageFix"/>
<feBlend mode="normal" in="SourceGraphic" in2="BackgroundImageFix" result="shape"/>
<feColorMatrix in="SourceAlpha" type="matrix" values="0 0 0 0 0 0 0 0 0 0 0 0 0 0 0 0 0 0 127 0" result="hardAlpha"/>
<feOffset dx="-0.5" dy="1"/>
<feGaussianBlur stdDeviation="0.75"/>
<feComposite in2="hardAlpha" operator="arithmetic" k2="-1" k3="1"/>
<feColorMatrix type="matrix" values="0 0 0 0 1 0 0 0 0 1 0 0 0 0 1 0 0 0 0.4 0"/>
<feBlend mode="normal" in2="shape" result="effect1_innerShadow_4_98995"/>
<feColorMatrix in="SourceAlpha" type="matrix" values="0 0 0 0 0 0 0 0 0 0 0 0 0 0 0 0 0 0 127 0" result="hardAlpha"/>
<feOffset dx="2" dy="-2"/>
<feGaussianBlur stdDeviation="2"/>
<feComposite in2="hardAlpha" operator="arithmetic" k2="-1" k3="1"/>
<feColorMatrix type="matrix" values="0 0 0 0 0 0 0 0 0 0 0 0 0 0 0 0 0 0 0.16 0"/>
<feBlend mode="overlay" in2="effect1_innerShadow_4_98995" result="effect2_innerShadow_4_98995"/>
</filter>
<filter id="filter20_f_4_98995" x="96.0786" y="332.607" width="48.6357" height="24.9148" filterUnits="userSpaceOnUse" color-interpolation-filters="sRGB">
<feFlood flood-opacity="0" result="BackgroundImageFix"/>
<feBlend mode="normal" in="SourceGraphic" in2="BackgroundImageFix" result="shape"/>
<feGaussianBlur stdDeviation="0.375" result="effect1_foregroundBlur_4_98995"/>
</filter>
<filter id="filter21_f_4_98995" x="96.5625" y="337.413" width="47.1699" height="6.94287" filterUnits="userSpaceOnUse" color-interpolation-filters="sRGB">
<feFlood flood-opacity="0" result="BackgroundImageFix"/>
<feBlend mode="normal" in="SourceGraphic" in2="BackgroundImageFix" result="shape"/>
<feGaussianBlur stdDeviation="0.125001" result="effect1_foregroundBlur_4_98995"/>
</filter>
<filter id="filter22_ii_4_98995" x="84.2656" y="233.066" width="41.5024" height="34.8646" filterUnits="userSpaceOnUse" color-interpolation-filters="sRGB">
<feFlood flood-opacity="0" result="BackgroundImageFix"/>
<feBlend mode="normal" in="SourceGraphic" in2="BackgroundImageFix" result="shape"/>
<feColorMatrix in="SourceAlpha" type="matrix" values="0 0 0 0 0 0 0 0 0 0 0 0 0 0 0 0 0 0 127 0" result="hardAlpha"/>
<feOffset dx="-0.5" dy="1"/>
<feGaussianBlur stdDeviation="0.75"/>
<feComposite in2="hardAlpha" operator="arithmetic" k2="-1" k3="1"/>
<feColorMatrix type="matrix" values="0 0 0 0 1 0 0 0 0 1 0 0 0 0 1 0 0 0 0.4 0"/>
<feBlend mode="normal" in2="shape" result="effect1_innerShadow_4_98995"/>
<feColorMatrix in="SourceAlpha" type="matrix" values="0 0 0 0 0 0 0 0 0 0 0 0 0 0 0 0 0 0 127 0" result="hardAlpha"/>
<feOffset dx="2" dy="-2"/>
<feGaussianBlur stdDeviation="2"/>
<feComposite in2="hardAlpha" operator="arithmetic" k2="-1" k3="1"/>
<feColorMatrix type="matrix" values="0 0 0 0 0 0 0 0 0 0 0 0 0 0 0 0 0 0 0.16 0"/>
<feBlend mode="overlay" in2="effect1_innerShadow_4_98995" result="effect2_innerShadow_4_98995"/>
</filter>
<filter id="filter23_f_4_98995" x="86.2773" y="236.152" width="39.522" height="31.6344" filterUnits="userSpaceOnUse" color-interpolation-filters="sRGB">
<feFlood flood-opacity="0" result="BackgroundImageFix"/>
<feBlend mode="normal" in="SourceGraphic" in2="BackgroundImageFix" result="shape"/>
<feGaussianBlur stdDeviation="0.375" result="effect1_foregroundBlur_4_98995"/>
</filter>
<filter id="filter24_f_4_98995" x="86.7456" y="236.598" width="37.6177" height="29.6283" filterUnits="userSpaceOnUse" color-interpolation-filters="sRGB">
<feFlood flood-opacity="0" result="BackgroundImageFix"/>
<feBlend mode="normal" in="SourceGraphic" in2="BackgroundImageFix" result="shape"/>
<feGaussianBlur stdDeviation="0.125001" result="effect1_foregroundBlur_4_98995"/>
</filter>
<filter id="filter25_ii_4_98995" x="96.4697" y="-18.014" width="40.4844" height="36.3323" filterUnits="userSpaceOnUse" color-interpolation-filters="sRGB">
<feFlood flood-opacity="0" result="BackgroundImageFix"/>
<feBlend mode="normal" in="SourceGraphic" in2="BackgroundImageFix" result="shape"/>
<feColorMatrix in="SourceAlpha" type="matrix" values="0 0 0 0 0 0 0 0 0 0 0 0 0 0 0 0 0 0 127 0" result="hardAlpha"/>
<feOffset dx="-0.5" dy="1"/>
<feGaussianBlur stdDeviation="0.75"/>
<feComposite in2="hardAlpha" operator="arithmetic" k2="-1" k3="1"/>
<feColorMatrix type="matrix" values="0 0 0 0 1 0 0 0 0 1 0 0 0 0 1 0 0 0 0.4 0"/>
<feBlend mode="normal" in2="shape" result="effect1_innerShadow_4_98995"/>
<feColorMatrix in="SourceAlpha" type="matrix" values="0 0 0 0 0 0 0 0 0 0 0 0 0 0 0 0 0 0 127 0" result="hardAlpha"/>
<feOffset dx="2" dy="-2"/>
<feGaussianBlur stdDeviation="2"/>
<feComposite in2="hardAlpha" operator="arithmetic" k2="-1" k3="1"/>
<feColorMatrix type="matrix" values="0 0 0 0 0 0 0 0 0 0 0 0 0 0 0 0 0 0 0.16 0"/>
<feBlend mode="overlay" in2="effect1_innerShadow_4_98995" result="effect2_innerShadow_4_98995"/>
</filter>
<filter id="filter26_f_4_98995" x="96.6172" y="-17.8378" width="39.1001" height="35.1508" filterUnits="userSpaceOnUse" color-interpolation-filters="sRGB">
<feFlood flood-opacity="0" result="BackgroundImageFix"/>
<feBlend mode="normal" in="SourceGraphic" in2="BackgroundImageFix" result="shape"/>
<feGaussianBlur stdDeviation="0.375" result="effect1_foregroundBlur_4_98995"/>
</filter>
<filter id="filter27_f_4_98995" x="97.0732" y="-16.3807" width="38.1792" height="28.9265" filterUnits="userSpaceOnUse" color-interpolation-filters="sRGB">
<feFlood flood-opacity="0" result="BackgroundImageFix"/>
<feBlend mode="normal" in="SourceGraphic" in2="BackgroundImageFix" result="shape"/>
<feGaussianBlur stdDeviation="0.125001" result="effect1_foregroundBlur_4_98995"/>
</filter>
<linearGradient id="paint0_linear_4_98995" x1="55.5443" y1="124.736" x2="173.547" y2="124.236" gradientUnits="userSpaceOnUse">
<stop stop-color="#89CE5E"/>
<stop offset="1" stop-color="#315E20"/>
</linearGradient>
<radialGradient id="paint1_radial_4_98995" cx="0" cy="0" r="1" gradientUnits="userSpaceOnUse" gradientTransform="translate(47 130.5) rotate(100.923) scale(87.0776 109.808)">
<stop stop-color="#2C821E"/>
<stop offset="0.484375" stop-color="#699B57"/>
<stop offset="1" stop-color="#27491F"/>
</radialGradient>
<linearGradient id="paint2_linear_4_98995" x1="40.1794" y1="137.183" x2="17.3152" y2="194.434" gradientUnits="userSpaceOnUse">
<stop stop-color="#A2DB6D"/>
<stop offset="0.484375" stop-color="#6A9800"/>
<stop offset="1" stop-color="#5C8502"/>
</linearGradient>
<linearGradient id="paint3_linear_4_98995" x1="40.1794" y1="137.183" x2="15.4411" y2="203.702" gradientUnits="userSpaceOnUse">
<stop stop-color="#A2DB6D"/>
<stop offset="0.484375" stop-color="#6A9800"/>
<stop offset="1" stop-color="#5C8502"/>
</linearGradient>
<linearGradient id="paint4_linear_4_98995" x1="-18.6627" y1="110.449" x2="80.3586" y2="142.979" gradientUnits="userSpaceOnUse">
<stop stop-opacity="0"/>
<stop offset="1"/>
</linearGradient>
<linearGradient id="paint5_linear_4_98995" x1="15.06" y1="133.91" x2="106.275" y2="159.698" gradientUnits="userSpaceOnUse">
<stop stop-opacity="0"/>
<stop offset="0.33055"/>
<stop offset="1" stop-opacity="0"/>
</linearGradient>
<radialGradient id="paint6_radial_4_98995" cx="0" cy="0" r="1" gradientUnits="userSpaceOnUse" gradientTransform="translate(110.894 29.7834) rotate(115.923) scale(87.0776 109.808)">
<stop stop-color="#2C821E"/>
<stop offset="0.484375" stop-color="#699B57"/>
<stop offset="1" stop-color="#27491F"/>
</radialGradient>
<linearGradient id="paint7_linear_4_98995" x1="102.576" y1="34.4732" x2="65.6732" y2="83.856" gradientUnits="userSpaceOnUse">
<stop stop-color="#A2DB6D"/>
<stop offset="0.484375" stop-color="#6A9800"/>
<stop offset="1" stop-color="#5C8502"/>
</linearGradient>
<linearGradient id="paint8_linear_4_98995" x1="102.576" y1="34.4732" x2="61.4643" y2="92.3229" gradientUnits="userSpaceOnUse">
<stop stop-color="#A2DB6D"/>
<stop offset="0.484375" stop-color="#6A9800"/>
<stop offset="1" stop-color="#5C8502"/>
</linearGradient>
<linearGradient id="paint9_linear_4_98995" x1="52.6583" y1="-6.57916" x2="139.886" y2="50.471" gradientUnits="userSpaceOnUse">
<stop stop-opacity="0"/>
<stop offset="1"/>
</linearGradient>
<linearGradient id="paint10_linear_4_98995" x1="79.1593" y1="24.8107" x2="160.592" y2="73.3277" gradientUnits="userSpaceOnUse">
<stop stop-opacity="0"/>
<stop offset="0.33055"/>
<stop offset="1" stop-opacity="0"/>
</linearGradient>
<radialGradient id="paint11_radial_4_98995" cx="0" cy="0" r="1" gradientUnits="userSpaceOnUse" gradientTransform="translate(143.904 4.81824) rotate(109.077) scale(65.3082 82.3561)">
<stop stop-color="#2C821E"/>
<stop offset="0.484375" stop-color="#699B57"/>
<stop offset="1" stop-color="#27491F"/>
</radialGradient>
<linearGradient id="paint12_linear_4_98995" x1="145.828" y1="11.7166" x2="139.21" y2="57.4765" gradientUnits="userSpaceOnUse">
<stop stop-color="#A2DB6D"/>
<stop offset="0.484375" stop-color="#6A9800"/>
<stop offset="1" stop-color="#5C8502"/>
</linearGradient>
<linearGradient id="paint13_linear_4_98995" x1="145.828" y1="11.7166" x2="136.952" y2="64.1988" gradientUnits="userSpaceOnUse">
<stop stop-color="#A2DB6D"/>
<stop offset="0.484375" stop-color="#6A9800"/>
<stop offset="1" stop-color="#5C8502"/>
</linearGradient>
<linearGradient id="paint14_linear_4_98995" x1="194.073" y1="16.418" x2="117.558" y2="0.413919" gradientUnits="userSpaceOnUse">
<stop stop-opacity="0"/>
<stop offset="1"/>
</linearGradient>
<linearGradient id="paint15_linear_4_98995" x1="163.371" y1="19.0107" x2="94.4551" y2="1.55457" gradientUnits="userSpaceOnUse">
<stop stop-opacity="0"/>
<stop offset="0.33055"/>
<stop offset="1" stop-opacity="0"/>
</linearGradient>
<radialGradient id="paint16_radial_4_98995" cx="0" cy="0" r="1" gradientUnits="userSpaceOnUse" gradientTransform="translate(115.785 178.601) rotate(109.077) scale(65.3082 82.3561)">
<stop stop-color="#2C821E"/>
<stop offset="0.484375" stop-color="#699B57"/>
<stop offset="1" stop-color="#27491F"/>
</radialGradient>
<linearGradient id="paint17_linear_4_98995" x1="117.709" y1="185.5" x2="111.091" y2="231.26" gradientUnits="userSpaceOnUse">
<stop stop-color="#A2DB6D"/>
<stop offset="0.484375" stop-color="#6A9800"/>
<stop offset="1" stop-color="#5C8502"/>
</linearGradient>
<linearGradient id="paint18_linear_4_98995" x1="117.709" y1="185.5" x2="108.832" y2="237.982" gradientUnits="userSpaceOnUse">
<stop stop-color="#A2DB6D"/>
<stop offset="0.484375" stop-color="#6A9800"/>
<stop offset="1" stop-color="#5C8502"/>
</linearGradient>
<linearGradient id="paint19_linear_4_98995" x1="165.954" y1="190.201" x2="89.4387" y2="174.197" gradientUnits="userSpaceOnUse">
<stop stop-opacity="0"/>
<stop offset="1"/>
</linearGradient>
<linearGradient id="paint20_linear_4_98995" x1="135.252" y1="192.794" x2="66.336" y2="175.338" gradientUnits="userSpaceOnUse">
<stop stop-opacity="0"/>
<stop offset="0.33055"/>
<stop offset="1" stop-opacity="0"/>
</linearGradient>
<radialGradient id="paint21_radial_4_98995" cx="0" cy="0" r="1" gradientUnits="userSpaceOnUse" gradientTransform="translate(45.001 288.733) rotate(55.9228) scale(65.3082 82.3561)">
<stop stop-color="#2C821E"/>
<stop offset="0.484375" stop-color="#699B57"/>
<stop offset="1" stop-color="#27491F"/>
</radialGradient>
<linearGradient id="paint22_linear_4_98995" x1="44.9279" y1="295.894" x2="63.1645" y2="338.381" gradientUnits="userSpaceOnUse">
<stop stop-color="#A2DB6D"/>
<stop offset="0.484375" stop-color="#6A9800"/>
<stop offset="1" stop-color="#5C8502"/>
</linearGradient>
<linearGradient id="paint23_linear_4_98995" x1="44.9284" y1="295.894" x2="67.086" y2="344.291" gradientUnits="userSpaceOnUse">
<stop stop-color="#A2DB6D"/>
<stop offset="0.484375" stop-color="#6A9800"/>
<stop offset="1" stop-color="#5C8502"/>
</linearGradient>
<linearGradient id="paint24_linear_4_98995" x1="-0.45513" y1="312.922" x2="69.3105" y2="277.66" gradientUnits="userSpaceOnUse">
<stop stop-opacity="0"/>
<stop offset="1"/>
</linearGradient>
<linearGradient id="paint25_linear_4_98995" x1="29.8716" y1="307.48" x2="91.9215" y2="272.782" gradientUnits="userSpaceOnUse">
<stop stop-opacity="0"/>
<stop offset="0.33055"/>
<stop offset="1" stop-opacity="0"/>
</linearGradient>
<radialGradient id="paint26_radial_4_98995" cx="0" cy="0" r="1" gradientUnits="userSpaceOnUse" gradientTransform="translate(88.5 126.25) rotate(100.923) scale(43.5388 54.9041)">
<stop stop-color="#2C821E"/>
<stop offset="0.484375" stop-color="#699B57"/>
<stop offset="1" stop-color="#27491F"/>
</radialGradient>
<linearGradient id="paint27_linear_4_98995" x1="85.0897" y1="129.591" x2="73.6576" y2="158.217" gradientUnits="userSpaceOnUse">
<stop stop-color="#A2DB6D"/>
<stop offset="0.484375" stop-color="#6A9800"/>
<stop offset="1" stop-color="#5C8502"/>
</linearGradient>
<linearGradient id="paint28_linear_4_98995" x1="85.0897" y1="129.591" x2="72.7206" y2="162.851" gradientUnits="userSpaceOnUse">
<stop stop-color="#A2DB6D"/>
<stop offset="0.484375" stop-color="#6A9800"/>
<stop offset="1" stop-color="#5C8502"/>
</linearGradient>
<linearGradient id="paint29_linear_4_98995" x1="55.6686" y1="116.225" x2="105.179" y2="132.49" gradientUnits="userSpaceOnUse">
<stop stop-opacity="0"/>
<stop offset="1"/>
</linearGradient>
<linearGradient id="paint30_linear_4_98995" x1="72.53" y1="127.955" x2="118.138" y2="140.849" gradientUnits="userSpaceOnUse">
<stop stop-opacity="0"/>
<stop offset="0.33055"/>
<stop offset="1" stop-opacity="0"/>
</linearGradient>
<radialGradient id="paint31_radial_4_98995" cx="0" cy="0" r="1" gradientUnits="userSpaceOnUse" gradientTransform="translate(124.524 323.734) rotate(109.077) scale(43.5388 54.9041)">
<stop stop-color="#2C821E"/>
<stop offset="0.484375" stop-color="#699B57"/>
<stop offset="1" stop-color="#27491F"/>
</radialGradient>
<linearGradient id="paint32_linear_4_98995" x1="125.807" y1="328.333" x2="121.394" y2="358.839" gradientUnits="userSpaceOnUse">
<stop stop-color="#A2DB6D"/>
<stop offset="0.484375" stop-color="#6A9800"/>
<stop offset="1" stop-color="#5C8502"/>
</linearGradient>
<linearGradient id="paint33_linear_4_98995" x1="125.807" y1="328.333" x2="119.889" y2="363.321" gradientUnits="userSpaceOnUse">
<stop stop-color="#A2DB6D"/>
<stop offset="0.484375" stop-color="#6A9800"/>
<stop offset="1" stop-color="#5C8502"/>
</linearGradient>
<linearGradient id="paint34_linear_4_98995" x1="157.97" y1="331.468" x2="106.96" y2="320.798" gradientUnits="userSpaceOnUse">
<stop stop-opacity="0"/>
<stop offset="1"/>
</linearGradient>
<linearGradient id="paint35_linear_4_98995" x1="137.502" y1="333.196" x2="91.5578" y2="321.559" gradientUnits="userSpaceOnUse">
<stop stop-opacity="0"/>
<stop offset="0.33055"/>
<stop offset="1" stop-opacity="0"/>
</linearGradient>
<radialGradient id="paint36_radial_4_98995" cx="0" cy="0" r="1" gradientUnits="userSpaceOnUse" gradientTransform="translate(120.608 242.553) rotate(154.077) scale(43.5388 54.9041)">
<stop stop-color="#2C821E"/>
<stop offset="0.484375" stop-color="#699B57"/>
<stop offset="1" stop-color="#27491F"/>
</radialGradient>
<linearGradient id="paint37_linear_4_98995" x1="118.263" y1="246.712" x2="93.5716" y2="265.163" gradientUnits="userSpaceOnUse">
<stop stop-color="#A2DB6D"/>
<stop offset="0.484375" stop-color="#6A9800"/>
<stop offset="1" stop-color="#5C8502"/>
</linearGradient>
<linearGradient id="paint38_linear_4_98995" x1="118.262" y1="246.712" x2="89.3377" y2="267.268" gradientUnits="userSpaceOnUse">
<stop stop-color="#A2DB6D"/>
<stop offset="0.484375" stop-color="#6A9800"/>
<stop offset="1" stop-color="#5C8502"/>
</linearGradient>
<linearGradient id="paint39_linear_4_98995" x1="138.789" y1="271.671" x2="110.264" y2="228.057" gradientUnits="userSpaceOnUse">
<stop stop-opacity="0"/>
<stop offset="1"/>
</linearGradient>
<linearGradient id="paint40_linear_4_98995" x1="123.094" y1="258.42" x2="98.8354" y2="217.704" gradientUnits="userSpaceOnUse">
<stop stop-opacity="0"/>
<stop offset="0.33055"/>
<stop offset="1" stop-opacity="0"/>
</linearGradient>
<radialGradient id="paint41_radial_4_98995" cx="0" cy="0" r="1" gradientUnits="userSpaceOnUse" gradientTransform="translate(111.5 -18.75) rotate(79.0772) scale(43.5388 54.9041)">
<stop stop-color="#2C821E"/>
<stop offset="0.484375" stop-color="#699B57"/>
<stop offset="1" stop-color="#27491F"/>
</radialGradient>
<linearGradient id="paint42_linear_4_98995" x1="114.91" y1="-15.4086" x2="126.342" y2="13.2171" gradientUnits="userSpaceOnUse">
<stop stop-color="#A2DB6D"/>
<stop offset="0.484375" stop-color="#6A9800"/>
<stop offset="1" stop-color="#5C8502"/>
</linearGradient>
<linearGradient id="paint43_linear_4_98995" x1="114.91" y1="-15.4086" x2="127.279" y2="17.8509" gradientUnits="userSpaceOnUse">
<stop stop-color="#A2DB6D"/>
<stop offset="0.484375" stop-color="#6A9800"/>
<stop offset="1" stop-color="#5C8502"/>
</linearGradient>
<linearGradient id="paint44_linear_4_98995" x1="144.331" y1="-28.7755" x2="94.8207" y2="-12.5105" gradientUnits="userSpaceOnUse">
<stop stop-opacity="0"/>
<stop offset="1"/>
</linearGradient>
<linearGradient id="paint45_linear_4_98995" x1="127.47" y1="-17.0449" x2="81.8625" y2="-4.15117" gradientUnits="userSpaceOnUse">
<stop stop-opacity="0"/>
<stop offset="0.33055"/>
<stop offset="1" stop-opacity="0"/>
</linearGradient>
</defs>
</svg>
